<?xml version="1.0" encoding="UTF-8"?>
<svg width="149px" height="45px" viewBox="0 0 149 45" version="1.1" xmlns="http://www.w3.org/2000/svg" xmlns:xlink="http://www.w3.org/1999/xlink">
    <title>Group 19</title>
    <g id="Page-1" stroke="none" stroke-width="1" fill="none" fill-rule="evenodd">
        <g id="dagnet_main" transform="translate(-1131.000000, -6919.000000)">
            <g id="Тапки" transform="translate(1.000000, 6391.000000)">
                <g id="Group-11" transform="translate(240.000000, 478.000000)">
                    <g id="Group-13" transform="translate(890.000000, 11.000000)">
                        <g id="Group-19" transform="translate(0.000000, 39.000000)">
                            <rect id="Rectangle" fill="#FFFFFF" x="0" y="0" width="149" height="45" rx="4"></rect>
                            <path d="M32.9198171,13.6239286 C35.8382857,13.6239286 37.7045257,16.4477 37.7045257,16.4477 C37.7045257,16.4477 34.8576457,17.9925714 34.8576457,21.3476643 C34.8576457,25.3297786 38.4339886,26.4881214 38.4339886,26.4881214 C38.4339886,26.4881214 35.6111771,33.1858786 32.4415314,33.1858786 C30.6592229,33.1858786 30.5401143,32.1605214 28.17152,32.1605214 C26.1145829,32.1605214 25.4209143,33.1858786 23.8539886,33.1858786 C20.8633143,33.1858786 17,26.65715 17,21.3476643 C17,15.8324857 20.9114514,13.6239286 23.36336,13.6239286 C25.5165714,13.6239286 26.41328,14.8910214 28.1474514,14.8910214 C29.6069943,14.8910214 30.7554971,13.6239286 32.9198171,13.6239286 L32.9198171,13.6239286 Z M70.7203162,23.5407012 C71.4787954,23.5407012 72.1392946,23.6797536 72.7018334,23.9578627 C73.2643722,24.2359718 73.732094,24.6120455 74.105013,25.086095 C74.477932,25.5601445 74.7591972,26.1068735 74.948817,26.7262982 C75.1384368,27.345723 75.2332453,28.0030618 75.2332453,28.6983345 C75.2332453,29.3936072 75.1415971,30.050946 74.9582979,30.6703708 C74.7749988,31.2897955 74.4968939,31.8302039 74.1239749,32.2916121 C73.7510559,32.7530203 73.2833341,33.1164529 72.7207953,33.3819206 C72.1582565,33.6473884 71.5040779,33.7801202 70.7582399,33.7801202 C70.5180548,33.7801202 70.2494308,33.754838 69.9523597,33.7042727 C69.6552887,33.6537074 69.3613824,33.5715401 69.070632,33.4577682 C68.7798816,33.3439963 68.504937,33.1891424 68.2457899,32.9932019 C67.9866428,32.7972614 67.7685833,32.5539197 67.5916048,32.2631693 L67.5916048,32.2631693 L67.553681,32.2631693 L67.553681,37.3070312 L65.9419206,37.3070312 L65.9419206,23.7682438 L67.553681,23.7682438 L67.553681,25.0955759 L67.5916048,25.0955759 C67.8570725,24.5519991 68.2742299,24.1569638 68.8430893,23.910458 C69.4119488,23.6639522 70.0376848,23.5407012 70.7203162,23.5407012 Z M81.9647152,23.5407012 C82.7231945,23.5407012 83.3836936,23.6797536 83.9462324,23.9578627 C84.5087712,24.2359718 84.9764931,24.6120455 85.3494121,25.086095 C85.7223311,25.5601445 86.0035962,26.1068735 86.1932161,26.7262982 C86.3828359,27.345723 86.4776444,28.0030618 86.4776444,28.6983345 C86.4776444,29.3936072 86.3859962,30.050946 86.202697,30.6703708 C86.0193978,31.2897955 85.741293,31.8302039 85.368374,32.2916121 C84.995455,32.7530203 84.5277331,33.1164529 83.9651943,33.3819206 C83.4026555,33.6473884 82.748477,33.7801202 82.002639,33.7801202 C81.7624539,33.7801202 81.4938299,33.754838 81.1967588,33.7042727 C80.8996878,33.6537074 80.6057814,33.5715401 80.3150311,33.4577682 C80.0242807,33.3439963 79.7493361,33.1891424 79.490189,32.9932019 C79.2310419,32.7972614 79.0129824,32.5539197 78.8360039,32.2631693 L78.8360039,32.2631693 L78.7980801,32.2631693 L78.7980801,37.3070312 L77.1863197,37.3070312 L77.1863197,23.7682438 L78.7980801,23.7682438 L78.7980801,25.0955759 L78.8360039,25.0955759 C79.1014716,24.5519991 79.518629,24.1569638 80.0874884,23.910458 C80.6563479,23.6639522 81.2820839,23.5407012 81.9647152,23.5407012 Z M98.461557,19.7104 C99.1568297,19.7104 99.8015274,19.7925674 100.39567,19.9569045 C100.989812,20.1212417 101.511258,20.3803849 101.960025,20.7343419 C102.408792,21.0882989 102.762744,21.5338988 103.021891,22.0711549 C103.281038,22.6084111 103.423251,23.2499485 103.448533,23.9957865 L103.448533,23.9957865 L101.741964,23.9957865 C101.640833,23.0224048 101.290042,22.3176617 100.689579,21.8815361 C100.089116,21.4454105 99.3211673,21.227351 98.3857095,21.227351 C98.0064698,21.227351 97.6335565,21.2652744 97.2669581,21.3411223 C96.9003598,21.4169702 96.5748507,21.5433815 96.290421,21.72036 C96.0059912,21.8973385 95.7784509,22.1343598 95.607793,22.4314308 C95.4371352,22.7285019 95.3518075,23.098255 95.3518075,23.5407012 C95.3518075,23.9578648 95.4750586,24.2960151 95.7215643,24.5551622 C95.9680701,24.8143092 96.2967395,25.0260482 96.7075825,25.1903854 C97.1184254,25.3547226 97.582987,25.4906147 98.1012812,25.598066 C98.6195753,25.7055172 99.1473426,25.8224477 99.6845988,25.9488609 C100.221855,26.0752741 100.749622,26.2238074 101.267916,26.3944652 C101.78621,26.565123 102.250772,26.7958237 102.661615,27.0865741 C103.072458,27.3773245 103.401127,27.7439173 103.647633,28.1863635 C103.894139,28.6288098 104.01739,29.1850196 104.01739,29.8550096 C104.01739,30.5755649 103.856216,31.1918201 103.533862,31.7037936 C103.211508,32.2157671 102.797511,32.6329245 102.291858,32.9552782 C101.786205,33.2776318 101.220515,33.5114928 100.594769,33.656868 C99.9690239,33.8022432 99.3464482,33.8749297 98.7270235,33.8749297 C97.9685442,33.8749297 97.25116,33.7801212 96.5748493,33.5905014 C95.8985386,33.4008816 95.3044054,33.1132958 94.7924319,32.7277355 C94.2804584,32.3421752 93.8759421,31.8491711 93.5788711,31.2487083 C93.2818,30.6482456 93.1332667,29.9371819 93.1332667,29.115496 L93.1332667,29.115496 L94.8398366,29.115496 C94.8398366,29.6843555 94.9504465,30.1741993 95.1716696,30.5850423 C95.3928927,30.9958852 95.6836388,31.3340355 96.0439164,31.5995032 C96.4041941,31.864971 96.8245117,32.0609085 97.3048819,32.1873217 C97.7852521,32.3137349 98.2782563,32.3769406 98.7839091,32.3769406 C99.1884314,32.3769406 99.5961079,32.3390172 100.006951,32.2631693 C100.417794,32.1873213 100.787547,32.0577497 101.116221,31.8744506 C101.444896,31.6911514 101.710359,31.4414891 101.91262,31.125456 C102.114882,30.809423 102.216011,30.4049068 102.216011,29.9118953 C102.216011,29.4441664 102.09276,29.0649324 101.846254,28.774182 C101.599748,28.4834317 101.271079,28.2464104 100.860236,28.0631113 C100.449393,27.8798121 99.9848312,27.7312788 99.466537,27.6175069 C98.9482429,27.503735 98.4204756,27.3868046 97.8832195,27.266712 C97.3459633,27.1466195 96.8181961,27.007567 96.2999019,26.8495505 C95.7816077,26.691534 95.3170461,26.4829553 94.9062032,26.2238082 C94.4953603,25.9646611 94.1666908,25.6296712 93.9201851,25.2188282 C93.6736793,24.8079853 93.5504283,24.2928592 93.5504283,23.6734344 C93.5504283,22.9908031 93.6894807,22.3998302 93.9675898,21.900498 C94.2456989,21.4011658 94.615452,20.990329 95.0768602,20.6679753 C95.5382684,20.3456216 96.0628754,20.1054401 96.6506968,19.9474236 C97.2385183,19.7894071 97.8421323,19.7104 98.461557,19.7104 Z M116.134036,23.5407012 C116.917798,23.5407012 117.603579,23.6734331 118.191401,23.9389008 C118.779222,24.2043686 119.275386,24.5678011 119.679909,25.0292093 C120.084431,25.4906176 120.387818,26.0341862 120.590079,26.6599316 C120.79234,27.285677 120.893469,27.9588173 120.893469,28.6793726 C120.893469,29.3999279 120.79234,30.0699079 120.590079,30.6893326 C120.387818,31.3087574 120.084431,31.8491658 119.679909,32.310574 C119.275386,32.7719822 118.779222,33.1322545 118.191401,33.3914016 C117.603579,33.6505486 116.917798,33.7801202 116.134036,33.7801202 C115.362915,33.7801202 114.680294,33.6505486 114.086152,33.3914016 C113.49201,33.1322545 112.992685,32.7719822 112.588163,32.310574 C112.183641,31.8491658 111.880253,31.3087574 111.677992,30.6893326 C111.475731,30.0699079 111.374602,29.3999279 111.374602,28.6793726 C111.374602,27.9588173 111.475731,27.285677 111.677992,26.6599316 C111.880253,26.0341862 112.183641,25.4906176 112.588163,25.0292093 C112.992685,24.5678011 113.49201,24.2043686 114.086152,23.9389008 C114.680294,23.6734331 115.362915,23.5407012 116.134036,23.5407012 Z M132.839458,23.5407012 C133.71171,23.5407012 134.435414,23.7208373 135.010594,24.081115 C135.585775,24.4413926 136.047176,24.8996337 136.394812,25.4558518 C136.742449,26.0120699 136.98263,26.6188443 137.115364,27.276193 C137.248098,27.9335417 137.301823,28.5592777 137.27654,29.1534198 L137.27654,29.1534198 L129.93829,29.1534198 C129.925648,29.5832247 129.976213,29.9909012 130.089985,30.3764615 C130.203757,30.7620218 130.387053,31.1033324 130.639879,31.4004034 C130.892706,31.6974745 131.215055,31.9344957 131.606936,32.1114742 C131.998817,32.2884527 132.460218,32.3769406 132.991153,32.3769406 C133.673785,32.3769406 134.233155,32.2189265 134.66928,31.9028934 C135.105406,31.5868604 135.392992,31.1064974 135.532046,30.46179 L135.532046,30.46179 L137.124845,30.46179 C136.909942,31.561585 136.4359,32.3895791 135.702703,32.9457972 C134.969507,33.5020153 134.046704,33.7801202 132.934268,33.7801202 C132.150506,33.7801202 131.471045,33.6537089 130.895865,33.4008825 C130.320685,33.1480561 129.837162,32.7941044 129.445281,32.3390168 C129.0534,31.8839293 128.759493,31.3403606 128.563553,30.7082945 C128.367612,30.0762285 128.257002,29.3872868 128.23172,28.6414488 C128.23172,27.8956109 128.34549,27.2129898 128.573034,26.593565 C128.800578,25.9741403 129.119766,25.4368922 129.530609,24.9818046 C129.941452,24.5267171 130.428136,24.1727654 130.990674,23.9199389 C131.553213,23.6671125 132.169468,23.5407012 132.839458,23.5407012 Z M59.5328028,20.0327521 L64.8231693,33.5715395 L62.8321711,33.5715395 L61.3531439,29.4947338 L55.626654,29.4947338 L54.1097031,33.5715395 L52.2704,33.5715395 L57.5418046,20.0327521 L59.5328028,20.0327521 Z M108.170043,20.8291513 L108.170043,23.7682438 L110.123118,23.7682438 L110.123118,25.1903854 L108.170043,25.1903854 L108.170043,31.2771511 C108.170043,31.466771 108.185845,31.6184645 108.217448,31.7322364 C108.249051,31.8460083 108.309097,31.9344962 108.397586,31.9977029 C108.486075,32.0609095 108.609326,32.1019931 108.767343,32.1209551 C108.925359,32.1399171 109.130778,32.149398 109.383604,32.149398 L109.383604,32.149398 L110.123118,32.149398 L110.123118,33.5715395 L108.890595,33.5715395 C108.473431,33.5715395 108.116319,33.5430969 107.819248,33.486211 C107.522177,33.429325 107.281996,33.3250357 107.098697,33.1733399 C106.915397,33.021644 106.779505,32.8067448 106.691016,32.5286357 C106.602527,32.2505266 106.558283,31.8839338 106.558283,31.4288462 L106.558283,31.4288462 L106.558283,25.1903854 L104.889637,25.1903854 L104.889637,23.7682438 L106.558283,23.7682438 L106.558283,20.8291513 L108.170043,20.8291513 Z M127.633282,23.5391842 L127.890406,23.5407012 L127.890406,25.247271 C127.245698,25.247271 126.695809,25.335759 126.240722,25.5127375 C125.785634,25.689716 125.419041,25.9488592 125.140932,26.2901748 C124.862823,26.6314905 124.660565,27.0454876 124.534152,27.5321784 C124.407739,28.0188693 124.344533,28.5782394 124.344533,29.2103054 L124.344533,29.2103054 L124.344533,33.5715395 L122.732773,33.5715395 L122.732773,23.7682438 L124.249724,23.7682438 L124.249724,25.8350895 L124.287647,25.8350895 C124.679528,25.0386863 125.159891,24.4508737 125.728751,24.071634 C126.29761,23.6923944 127.018155,23.5154186 127.890406,23.5407012 Z M70.4927735,24.9628427 C69.9491967,24.9628427 69.4877954,25.0702924 69.1085558,25.2851948 C68.7293161,25.5000973 68.4196084,25.7813625 68.1794233,26.1289988 C67.9392382,26.4766351 67.7654226,26.8716705 67.6579714,27.3141167 C67.5505202,27.756563 67.4967954,28.2053232 67.4967954,28.6604107 C67.4967954,29.1407809 67.5536805,29.6053425 67.6674523,30.0541094 C67.7812242,30.5028763 67.9613604,30.8979117 68.2078661,31.2392274 C68.4543719,31.580543 68.7735605,31.8554877 69.1654414,32.0640695 C69.5573224,32.2726513 70.0313648,32.3769406 70.587583,32.3769406 C71.1438011,32.3769406 71.6083627,32.269491 71.9812817,32.0545885 C72.3542006,31.8396861 72.6544275,31.5552606 72.8819713,31.2013036 C73.1095151,30.8473466 73.2738498,30.4428304 73.3749804,29.9877428 C73.4761109,29.5326553 73.5266755,29.0649334 73.5266755,28.5845632 C73.5266755,28.1294756 73.4666301,27.6838757 73.3465375,27.2477501 C73.226445,26.8116245 73.0431486,26.4229097 72.7966428,26.0815941 C72.550137,25.7402784 72.2341088,25.4684941 71.8485485,25.2662329 C71.4629882,25.0639718 71.0110677,24.9628427 70.4927735,24.9628427 Z M81.7371726,24.9628427 C81.1935958,24.9628427 80.7321945,25.0702924 80.3529548,25.2851948 C79.9737152,25.5000973 79.6640075,25.7813625 79.4238224,26.1289988 C79.1836373,26.4766351 79.0098217,26.8716705 78.9023705,27.3141167 C78.7949192,27.756563 78.7411944,28.2053232 78.7411944,28.6604107 C78.7411944,29.1407809 78.7980795,29.6053425 78.9118514,30.0541094 C79.0256233,30.5028763 79.2057594,30.8979117 79.4522652,31.2392274 C79.698771,31.580543 80.0179595,31.8554877 80.4098405,32.0640695 C80.8017215,32.2726513 81.2757639,32.3769406 81.831982,32.3769406 C82.3882002,32.3769406 82.8527618,32.269491 83.2256807,32.0545885 C83.5985997,31.8396861 83.8988266,31.5552606 84.1263704,31.2013036 C84.3539141,30.8473466 84.5182489,30.4428304 84.6193794,29.9877428 C84.72051,29.5326553 84.7710745,29.0649334 84.7710745,28.5845632 C84.7710745,28.1294756 84.7110292,27.6838757 84.5909366,27.2477501 C84.470844,26.8116245 84.2875476,26.4229097 84.0410419,26.0815941 C83.7945361,25.7402784 83.4785078,25.4684941 83.0929475,25.2662329 C82.7073872,25.0639718 82.2554668,24.9628427 81.7371726,24.9628427 Z M116.134036,24.9628427 C115.716872,24.9628427 115.321837,25.0450101 114.948918,25.2093473 C114.575999,25.3736844 114.25049,25.6138659 113.972381,25.929899 C113.694272,26.245932 113.476212,26.6346468 113.318196,27.096055 C113.160179,27.5574633 113.081172,28.0852305 113.081172,28.6793726 C113.081172,29.2735147 113.160179,29.801282 113.318196,30.2626902 C113.476212,30.7240984 113.694272,31.1096529 113.972381,31.4193653 C114.25049,31.7290777 114.575999,31.9660989 114.948918,32.1304361 C115.321837,32.2947732 115.716872,32.3769406 116.134036,32.3769406 C116.551199,32.3769406 116.946235,32.2947732 117.319154,32.1304361 C117.692073,31.9660989 118.017582,31.7290777 118.295691,31.4193653 C118.5738,31.1096529 118.79186,30.7240984 118.949876,30.2626902 C119.107893,29.801282 119.1869,29.2735147 119.1869,28.6793726 C119.1869,28.0852305 119.107893,27.5574633 118.949876,27.096055 C118.79186,26.6346468 118.5738,26.245932 118.295691,25.929899 C118.017582,25.6138659 117.692073,25.3736844 117.319154,25.2093473 C116.946235,25.0450101 116.551199,24.9628427 116.134036,24.9628427 Z M58.5278228,21.6634744 L58.489899,21.6634744 L56.1955106,27.9777828 L60.7842873,27.9777828 L58.5278228,21.6634744 Z M132.744649,24.9628427 C132.327485,24.9628427 131.951412,25.0355292 131.616417,25.1809044 C131.281422,25.3262796 130.993836,25.5253775 130.753651,25.7782039 C130.513466,26.0310303 130.323849,26.3249366 130.184794,26.6599316 C130.04574,26.9949266 129.963572,27.3520386 129.93829,27.7312783 L129.93829,27.7312783 L135.56997,27.7312783 C135.544687,27.3520386 135.45936,26.9917664 135.313985,26.6504507 C135.168609,26.309135 134.972672,26.0152287 134.726166,25.7687229 C134.47966,25.5222172 134.188914,25.3262796 133.853919,25.1809044 C133.518924,25.0355292 133.149171,24.9628427 132.744649,24.9628427 Z M32.41808,8 C32.8482286,10.7032143 30.39632,14.0465 27.4661257,13.93775 C27.03536,10.4981429 30.19328,8.18145714 32.41808,8 Z" id="Imported-Layers" fill="#363636"></path>
                            <path d="M57.4477539,15.0878906 C58.2709961,15.0878906 58.9162598,14.9194336 59.3835449,14.5825195 C59.8508301,14.2456055 60.0844727,13.7783203 60.0844727,13.1806641 C60.0844727,12.7529297 59.9372559,12.4064941 59.6428223,12.1413574 C59.3483887,11.8762207 58.9199219,11.7099609 58.3574219,11.6425781 L58.3574219,11.6425781 L58.3574219,11.6162109 C58.8466797,11.5429688 59.2297363,11.3730469 59.5065918,11.1064453 C59.7834473,10.8398438 59.921875,10.4970703 59.921875,10.078125 C59.921875,9.59472656 59.7241211,9.20800781 59.3286133,8.91796875 C58.9331055,8.62792969 58.3955078,8.48291016 57.7158203,8.48291016 C56.8222656,8.48291016 56.0458984,8.71142578 55.3867188,9.16845703 L55.3867188,9.16845703 L55.8657227,9.88037109 C56.1674805,9.68408203 56.4589844,9.54492188 56.7402344,9.46289062 C57.0214844,9.38085938 57.3173828,9.33984375 57.6279297,9.33984375 C58.0205078,9.33984375 58.3259277,9.41894531 58.5441895,9.57714844 C58.7624512,9.73535156 58.871582,9.95068359 58.871582,10.2231445 C58.871582,10.9057617 58.2314453,11.2470703 56.9511719,11.2470703 L56.9511719,11.2470703 L56.2260742,11.2470703 L56.2260742,12.0908203 L56.9995117,12.0908203 C57.6645508,12.0908203 58.1662598,12.1801758 58.5046387,12.3588867 C58.8430176,12.5375977 59.012207,12.796875 59.012207,13.1367188 C59.012207,13.875 58.4482422,14.2441406 57.3203125,14.2441406 C57.0273438,14.2441406 56.7043457,14.2075195 56.3513184,14.1342773 C55.998291,14.0610352 55.6796875,13.9570312 55.3955078,13.8222656 L55.3955078,13.8222656 L55.3955078,14.7407227 C55.9082031,14.972168 56.5922852,15.0878906 57.4477539,15.0878906 Z M62.4399414,15.0878906 C62.8120117,15.0878906 63.1166992,15.0344238 63.3540039,14.9274902 C63.5913086,14.8205566 63.8271484,14.6191406 64.0615234,14.3232422 L64.0615234,14.3232422 L64.0966797,14.3232422 L64.3032227,15 L65.0415039,15 L65.0415039,11.7260742 C65.0415039,11.1489258 64.8840332,10.7255859 64.5690918,10.4560547 C64.2541504,10.1865234 63.7875977,10.0517578 63.1694336,10.0517578 C62.8911133,10.0517578 62.5952148,10.0876465 62.2817383,10.1594238 C61.9682617,10.2312012 61.6796875,10.3359375 61.4160156,10.4736328 L61.4160156,10.4736328 L61.75,11.2119141 C61.9609375,11.1123047 62.1806641,11.0258789 62.4091797,10.9526367 C62.6376953,10.8793945 62.8764648,10.8427734 63.1254883,10.8427734 C63.4301758,10.8427734 63.6550293,10.9196777 63.8000488,11.0734863 C63.9450684,11.2272949 64.0175781,11.4594727 64.0175781,11.7700195 L64.0175781,11.7700195 L64.0175781,12.0292969 L63.1782227,12.0556641 C62.4165039,12.0791016 61.8496094,12.2182617 61.4775391,12.4731445 C61.1054688,12.7280273 60.9194336,13.105957 60.9194336,13.6069336 C60.9194336,14.0786133 61.0534668,14.4433594 61.3215332,14.7011719 C61.5895996,14.9589844 61.9624023,15.0878906 62.4399414,15.0878906 Z M62.7651367,14.296875 C62.5073242,14.296875 62.3139648,14.2375488 62.1850586,14.1188965 C62.0561523,14.0002441 61.9916992,13.8325195 61.9916992,13.6157227 C61.9916992,13.3168945 62.1022949,13.0949707 62.3234863,12.9499512 C62.5446777,12.8049316 62.8984375,12.7236328 63.3847656,12.7060547 L63.3847656,12.7060547 L64.0087891,12.6796875 L64.0087891,13.1015625 C64.0087891,13.4794922 63.8952637,13.7731934 63.6682129,13.982666 C63.4411621,14.1921387 63.1401367,14.296875 62.7651367,14.296875 Z M67.515625,15 L67.515625,10.9482422 L69.625,10.9482422 L69.625,10.1396484 L66.4829102,10.1396484 L66.4829102,15 L67.515625,15 Z M71.59375,17.1621094 L71.59375,15.1713867 C71.59375,15.0834961 71.5732422,14.8344727 71.5322266,14.4243164 L71.5322266,14.4243164 L71.59375,14.4243164 C71.9335938,14.8666992 72.4111328,15.0878906 73.0263672,15.0878906 C73.6328125,15.0878906 74.1081543,14.8652344 74.4523926,14.4199219 C74.7966309,13.9746094 74.96875,13.3549805 74.96875,12.5610352 C74.96875,11.7670898 74.7995605,11.1503906 74.4611816,10.7109375 C74.1228027,10.2714844 73.6503906,10.0517578 73.0439453,10.0517578 C72.3994141,10.0517578 71.9160156,10.2978516 71.59375,10.7900391 L71.59375,10.7900391 L71.5410156,10.7900391 C71.4677734,10.4472656 71.4194336,10.2304688 71.3959961,10.1396484 L71.3959961,10.1396484 L70.5610352,10.1396484 L70.5610352,17.1621094 L71.59375,17.1621094 Z M72.793457,14.2441406 C72.3686523,14.2441406 72.0625,14.1115723 71.875,13.8464355 C71.6875,13.5812988 71.59375,13.152832 71.59375,12.5610352 L71.59375,12.5610352 L71.59375,12.4072266 C71.59375,11.8798828 71.6882324,11.4960938 71.8771973,11.2558594 C72.0661621,11.015625 72.3657227,10.8955078 72.7758789,10.8955078 C73.1479492,10.8955078 73.4299316,11.0354004 73.6218262,11.3151855 C73.8137207,11.5949707 73.909668,12.0073242 73.909668,12.5522461 C73.909668,13.0942383 73.8129883,13.5117188 73.6196289,13.8046875 C73.4262695,14.0976562 73.1508789,14.2441406 72.793457,14.2441406 Z M76.1992188,17.1621094 C77.0810547,17.1621094 77.7109375,16.6567383 78.0888672,15.6459961 L78.0888672,15.6459961 L80.1674805,10.1396484 L79.0512695,10.1396484 C78.3774414,12.09375 78.0053711,13.185791 77.9350586,13.4157715 C77.8647461,13.645752 77.8164062,13.8413086 77.7900391,14.0024414 L77.7900391,14.0024414 L77.7548828,14.0024414 C77.7050781,13.6567383 77.6054688,13.2875977 77.4560547,12.8950195 L77.4560547,12.8950195 L76.4672852,10.1396484 L75.3422852,10.1396484 L77.293457,15 L77.1132812,15.4570312 C76.9111328,16.0341797 76.5610352,16.3227539 76.0629883,16.3227539 C75.8637695,16.3227539 75.6865234,16.3051758 75.53125,16.2700195 L75.53125,16.2700195 L75.53125,17.0874023 C75.7480469,17.137207 75.9707031,17.1621094 76.1992188,17.1621094 Z M82.2373047,15.0878906 C82.9375,15.0878906 83.4831543,14.9553223 83.8742676,14.6901855 C84.2653809,14.4250488 84.4609375,14.0698242 84.4609375,13.6245117 C84.4609375,13.3344727 84.376709,13.0913086 84.208252,12.8950195 C84.0397949,12.6987305 83.7607422,12.5478516 83.3710938,12.4423828 L83.3710938,12.4423828 L83.3710938,12.4072266 C83.9951172,12.2373047 84.3071289,11.8798828 84.3071289,11.3349609 C84.3071289,10.921875 84.1401367,10.6047363 83.8061523,10.3835449 C83.472168,10.1623535 83.003418,10.0517578 82.3999023,10.0517578 C81.7172852,10.0517578 81.0932617,10.1674805 80.527832,10.3989258 L80.527832,10.3989258 L80.8618164,11.1679688 C81.3510742,10.9570312 81.8300781,10.8515625 82.2988281,10.8515625 C83.0019531,10.8515625 83.3535156,11.0493164 83.3535156,11.4448242 C83.3535156,11.6616211 83.2421875,11.8220215 83.0195312,11.9260254 C82.796875,12.0300293 82.449707,12.0820312 81.9780273,12.0820312 L81.9780273,12.0820312 L81.4638672,12.0820312 L81.4638672,12.8598633 L82.0571289,12.8598633 C82.5288086,12.8598633 82.8774414,12.9169922 83.1030273,13.03125 C83.3286133,13.1455078 83.4414062,13.3242188 83.4414062,13.5673828 C83.4414062,13.8046875 83.3293457,13.9812012 83.1052246,14.0969238 C82.8811035,14.2126465 82.5625,14.2705078 82.1494141,14.2705078 C81.5751953,14.2705078 81.0200195,14.1445312 80.4838867,13.8925781 L80.4838867,13.8925781 L80.4838867,14.784668 C80.8881836,14.9868164 81.4726562,15.0878906 82.2373047,15.0878906 Z M86.8383789,15 L89.2685547,11.2382812 C89.2568359,11.3759766 89.2429199,11.5957031 89.2268066,11.8974609 C89.2106934,12.1992188 89.2026367,12.4174805 89.2026367,12.5522461 L89.2026367,12.5522461 L89.2026367,15 L90.1958008,15 L90.1958008,10.1396484 L88.9345703,10.1396484 L86.4956055,13.9101562 C86.5424805,13.3476562 86.565918,12.9213867 86.565918,12.6313477 L86.565918,12.6313477 L86.565918,10.1396484 L85.5771484,10.1396484 L85.5771484,15 L86.8383789,15 Z M93.737793,15 L93.737793,10.9482422 L95.3198242,10.9482422 L95.3198242,10.1396484 L91.1186523,10.1396484 L91.1186523,10.9482422 L92.7006836,10.9482422 L92.7006836,15 L93.737793,15 Z M98.2905273,15.0878906 C98.621582,15.0878906 98.9160156,15.0629883 99.1738281,15.0131836 C99.4316406,14.9633789 99.6865234,14.878418 99.9384766,14.7583008 L99.9384766,14.7583008 L99.9384766,13.9189453 C99.6542969,14.0449219 99.3884277,14.1350098 99.1408691,14.189209 C98.8933105,14.2434082 98.6259766,14.2705078 98.3388672,14.2705078 C97.9023438,14.2705078 97.5639648,14.1437988 97.3237305,13.8903809 C97.0834961,13.6369629 96.9560547,13.2744141 96.9414062,12.8027344 L96.9414062,12.8027344 L100.180176,12.8027344 L100.180176,12.2446289 C100.180176,11.5620117 99.9941406,11.0258789 99.6220703,10.6362305 C99.25,10.246582 98.7431641,10.0517578 98.1015625,10.0517578 C97.4101562,10.0517578 96.8666992,10.2788086 96.4711914,10.7329102 C96.0756836,11.1870117 95.8779297,11.8110352 95.8779297,12.6049805 C95.8779297,13.378418 96.0910645,13.9855957 96.517334,14.4265137 C96.9436035,14.8674316 97.534668,15.0878906 98.2905273,15.0878906 Z M99.1650391,12.0556641 L96.9589844,12.0556641 C96.9970703,11.6572266 97.1149902,11.3540039 97.3127441,11.1459961 C97.510498,10.9379883 97.7734375,10.8339844 98.1015625,10.8339844 C98.4296875,10.8339844 98.6875,10.9372559 98.875,11.1437988 C99.0625,11.3503418 99.1591797,11.6542969 99.1650391,12.0556641 L99.1650391,12.0556641 Z M106.011719,15 C106.679688,15 107.188721,14.8762207 107.538818,14.6286621 C107.888916,14.3811035 108.063965,14.0273438 108.063965,13.5673828 C108.063965,13.2597656 107.964355,13.0092773 107.765137,12.815918 C107.565918,12.6225586 107.278809,12.5039062 106.903809,12.4599609 L106.903809,12.4599609 L106.903809,12.4248047 C107.574707,12.3046875 107.910156,11.9575195 107.910156,11.3833008 C107.910156,10.5541992 107.274414,10.1396484 106.00293,10.1396484 L106.00293,10.1396484 L103.691406,10.1396484 L103.691406,15 L106.011719,15 Z M105.822754,12.0908203 L104.724121,12.0908203 L104.724121,10.921875 L105.976562,10.921875 C106.275391,10.921875 106.500244,10.9650879 106.651123,11.0515137 C106.802002,11.1379395 106.877441,11.277832 106.877441,11.4711914 C106.877441,11.7055664 106.788086,11.8674316 106.609375,11.9567871 C106.430664,12.0461426 106.168457,12.0908203 105.822754,12.0908203 L105.822754,12.0908203 Z M105.941406,14.2353516 L104.724121,14.2353516 L104.724121,12.8598633 L105.915039,12.8598633 C106.27832,12.8598633 106.550781,12.9089355 106.732422,13.0070801 C106.914062,13.1052246 107.004883,13.2714844 107.004883,13.5058594 C107.004883,13.9921875 106.650391,14.2353516 105.941406,14.2353516 L105.941406,14.2353516 Z" id="Загрузитев" fill="#363636" fill-rule="nonzero"></path>
                        </g>
                    </g>
                </g>
            </g>
        </g>
    </g>
</svg>