<?xml version="1.0" encoding="UTF-8"?>
<svg width="149px" height="45px" viewBox="0 0 149 45" version="1.1" xmlns="http://www.w3.org/2000/svg" xmlns:xlink="http://www.w3.org/1999/xlink">
    <title>Group 18</title>
    <g id="Page-1" stroke="none" stroke-width="1" fill="none" fill-rule="evenodd">
        <g id="dagnet_main" transform="translate(-1292.000000, -6919.000000)">
            <g id="Тапки" transform="translate(1.000000, 6391.000000)">
                <g id="Group-11" transform="translate(240.000000, 478.000000)">
                    <g id="Group-13" transform="translate(890.000000, 11.000000)">
                        <g id="Group-18" transform="translate(161.000000, 39.000000)">
                            <rect id="Rectangle-Copy-14" fill="#FFFFFF" x="0" y="0" width="149" height="45" rx="4"></rect>
                            <path d="M55.4477539,15.0878906 C56.2709961,15.0878906 56.9162598,14.9194336 57.3835449,14.5825195 C57.8508301,14.2456055 58.0844727,13.7783203 58.0844727,13.1806641 C58.0844727,12.7529297 57.9372559,12.4064941 57.6428223,12.1413574 C57.3483887,11.8762207 56.9199219,11.7099609 56.3574219,11.6425781 L56.3574219,11.6425781 L56.3574219,11.6162109 C56.8466797,11.5429688 57.2297363,11.3730469 57.5065918,11.1064453 C57.7834473,10.8398438 57.921875,10.4970703 57.921875,10.078125 C57.921875,9.59472656 57.7241211,9.20800781 57.3286133,8.91796875 C56.9331055,8.62792969 56.3955078,8.48291016 55.7158203,8.48291016 C54.8222656,8.48291016 54.0458984,8.71142578 53.3867188,9.16845703 L53.3867188,9.16845703 L53.8657227,9.88037109 C54.1674805,9.68408203 54.4589844,9.54492188 54.7402344,9.46289062 C55.0214844,9.38085938 55.3173828,9.33984375 55.6279297,9.33984375 C56.0205078,9.33984375 56.3259277,9.41894531 56.5441895,9.57714844 C56.7624512,9.73535156 56.871582,9.95068359 56.871582,10.2231445 C56.871582,10.9057617 56.2314453,11.2470703 54.9511719,11.2470703 L54.9511719,11.2470703 L54.2260742,11.2470703 L54.2260742,12.0908203 L54.9995117,12.0908203 C55.6645508,12.0908203 56.1662598,12.1801758 56.5046387,12.3588867 C56.8430176,12.5375977 57.012207,12.796875 57.012207,13.1367188 C57.012207,13.875 56.4482422,14.2441406 55.3203125,14.2441406 C55.0273438,14.2441406 54.7043457,14.2075195 54.3513184,14.1342773 C53.998291,14.0610352 53.6796875,13.9570312 53.3955078,13.8222656 L53.3955078,13.8222656 L53.3955078,14.7407227 C53.9082031,14.972168 54.5922852,15.0878906 55.4477539,15.0878906 Z M60.4399414,15.0878906 C60.8120117,15.0878906 61.1166992,15.0344238 61.3540039,14.9274902 C61.5913086,14.8205566 61.8271484,14.6191406 62.0615234,14.3232422 L62.0615234,14.3232422 L62.0966797,14.3232422 L62.3032227,15 L63.0415039,15 L63.0415039,11.7260742 C63.0415039,11.1489258 62.8840332,10.7255859 62.5690918,10.4560547 C62.2541504,10.1865234 61.7875977,10.0517578 61.1694336,10.0517578 C60.8911133,10.0517578 60.5952148,10.0876465 60.2817383,10.1594238 C59.9682617,10.2312012 59.6796875,10.3359375 59.4160156,10.4736328 L59.4160156,10.4736328 L59.75,11.2119141 C59.9609375,11.1123047 60.1806641,11.0258789 60.4091797,10.9526367 C60.6376953,10.8793945 60.8764648,10.8427734 61.1254883,10.8427734 C61.4301758,10.8427734 61.6550293,10.9196777 61.8000488,11.0734863 C61.9450684,11.2272949 62.0175781,11.4594727 62.0175781,11.7700195 L62.0175781,11.7700195 L62.0175781,12.0292969 L61.1782227,12.0556641 C60.4165039,12.0791016 59.8496094,12.2182617 59.4775391,12.4731445 C59.1054688,12.7280273 58.9194336,13.105957 58.9194336,13.6069336 C58.9194336,14.0786133 59.0534668,14.4433594 59.3215332,14.7011719 C59.5895996,14.9589844 59.9624023,15.0878906 60.4399414,15.0878906 Z M60.7651367,14.296875 C60.5073242,14.296875 60.3139648,14.2375488 60.1850586,14.1188965 C60.0561523,14.0002441 59.9916992,13.8325195 59.9916992,13.6157227 C59.9916992,13.3168945 60.1022949,13.0949707 60.3234863,12.9499512 C60.5446777,12.8049316 60.8984375,12.7236328 61.3847656,12.7060547 L61.3847656,12.7060547 L62.0087891,12.6796875 L62.0087891,13.1015625 C62.0087891,13.4794922 61.8952637,13.7731934 61.6682129,13.982666 C61.4411621,14.1921387 61.1401367,14.296875 60.7651367,14.296875 Z M65.515625,15 L65.515625,10.9482422 L67.625,10.9482422 L67.625,10.1396484 L64.4829102,10.1396484 L64.4829102,15 L65.515625,15 Z M69.59375,17.1621094 L69.59375,15.1713867 C69.59375,15.0834961 69.5732422,14.8344727 69.5322266,14.4243164 L69.5322266,14.4243164 L69.59375,14.4243164 C69.9335938,14.8666992 70.4111328,15.0878906 71.0263672,15.0878906 C71.6328125,15.0878906 72.1081543,14.8652344 72.4523926,14.4199219 C72.7966309,13.9746094 72.96875,13.3549805 72.96875,12.5610352 C72.96875,11.7670898 72.7995605,11.1503906 72.4611816,10.7109375 C72.1228027,10.2714844 71.6503906,10.0517578 71.0439453,10.0517578 C70.3994141,10.0517578 69.9160156,10.2978516 69.59375,10.7900391 L69.59375,10.7900391 L69.5410156,10.7900391 C69.4677734,10.4472656 69.4194336,10.2304688 69.3959961,10.1396484 L69.3959961,10.1396484 L68.5610352,10.1396484 L68.5610352,17.1621094 L69.59375,17.1621094 Z M70.793457,14.2441406 C70.3686523,14.2441406 70.0625,14.1115723 69.875,13.8464355 C69.6875,13.5812988 69.59375,13.152832 69.59375,12.5610352 L69.59375,12.5610352 L69.59375,12.4072266 C69.59375,11.8798828 69.6882324,11.4960938 69.8771973,11.2558594 C70.0661621,11.015625 70.3657227,10.8955078 70.7758789,10.8955078 C71.1479492,10.8955078 71.4299316,11.0354004 71.6218262,11.3151855 C71.8137207,11.5949707 71.909668,12.0073242 71.909668,12.5522461 C71.909668,13.0942383 71.8129883,13.5117188 71.6196289,13.8046875 C71.4262695,14.0976562 71.1508789,14.2441406 70.793457,14.2441406 Z M74.1992188,17.1621094 C75.0810547,17.1621094 75.7109375,16.6567383 76.0888672,15.6459961 L76.0888672,15.6459961 L78.1674805,10.1396484 L77.0512695,10.1396484 C76.3774414,12.09375 76.0053711,13.185791 75.9350586,13.4157715 C75.8647461,13.645752 75.8164062,13.8413086 75.7900391,14.0024414 L75.7900391,14.0024414 L75.7548828,14.0024414 C75.7050781,13.6567383 75.6054688,13.2875977 75.4560547,12.8950195 L75.4560547,12.8950195 L74.4672852,10.1396484 L73.3422852,10.1396484 L75.293457,15 L75.1132812,15.4570312 C74.9111328,16.0341797 74.5610352,16.3227539 74.0629883,16.3227539 C73.8637695,16.3227539 73.6865234,16.3051758 73.53125,16.2700195 L73.53125,16.2700195 L73.53125,17.0874023 C73.7480469,17.137207 73.9707031,17.1621094 74.1992188,17.1621094 Z M80.2373047,15.0878906 C80.9375,15.0878906 81.4831543,14.9553223 81.8742676,14.6901855 C82.2653809,14.4250488 82.4609375,14.0698242 82.4609375,13.6245117 C82.4609375,13.3344727 82.376709,13.0913086 82.208252,12.8950195 C82.0397949,12.6987305 81.7607422,12.5478516 81.3710938,12.4423828 L81.3710938,12.4423828 L81.3710938,12.4072266 C81.9951172,12.2373047 82.3071289,11.8798828 82.3071289,11.3349609 C82.3071289,10.921875 82.1401367,10.6047363 81.8061523,10.3835449 C81.472168,10.1623535 81.003418,10.0517578 80.3999023,10.0517578 C79.7172852,10.0517578 79.0932617,10.1674805 78.527832,10.3989258 L78.527832,10.3989258 L78.8618164,11.1679688 C79.3510742,10.9570312 79.8300781,10.8515625 80.2988281,10.8515625 C81.0019531,10.8515625 81.3535156,11.0493164 81.3535156,11.4448242 C81.3535156,11.6616211 81.2421875,11.8220215 81.0195312,11.9260254 C80.796875,12.0300293 80.449707,12.0820312 79.9780273,12.0820312 L79.9780273,12.0820312 L79.4638672,12.0820312 L79.4638672,12.8598633 L80.0571289,12.8598633 C80.5288086,12.8598633 80.8774414,12.9169922 81.1030273,13.03125 C81.3286133,13.1455078 81.4414062,13.3242188 81.4414062,13.5673828 C81.4414062,13.8046875 81.3293457,13.9812012 81.1052246,14.0969238 C80.8811035,14.2126465 80.5625,14.2705078 80.1494141,14.2705078 C79.5751953,14.2705078 79.0200195,14.1445312 78.4838867,13.8925781 L78.4838867,13.8925781 L78.4838867,14.784668 C78.8881836,14.9868164 79.4726562,15.0878906 80.2373047,15.0878906 Z M84.8383789,15 L87.2685547,11.2382812 C87.2568359,11.3759766 87.2429199,11.5957031 87.2268066,11.8974609 C87.2106934,12.1992188 87.2026367,12.4174805 87.2026367,12.5522461 L87.2026367,12.5522461 L87.2026367,15 L88.1958008,15 L88.1958008,10.1396484 L86.9345703,10.1396484 L84.4956055,13.9101562 C84.5424805,13.3476562 84.565918,12.9213867 84.565918,12.6313477 L84.565918,12.6313477 L84.565918,10.1396484 L83.5771484,10.1396484 L83.5771484,15 L84.8383789,15 Z M91.737793,15 L91.737793,10.9482422 L93.3198242,10.9482422 L93.3198242,10.1396484 L89.1186523,10.1396484 L89.1186523,10.9482422 L90.7006836,10.9482422 L90.7006836,15 L91.737793,15 Z M96.2905273,15.0878906 C96.621582,15.0878906 96.9160156,15.0629883 97.1738281,15.0131836 C97.4316406,14.9633789 97.6865234,14.878418 97.9384766,14.7583008 L97.9384766,14.7583008 L97.9384766,13.9189453 C97.6542969,14.0449219 97.3884277,14.1350098 97.1408691,14.189209 C96.8933105,14.2434082 96.6259766,14.2705078 96.3388672,14.2705078 C95.9023438,14.2705078 95.5639648,14.1437988 95.3237305,13.8903809 C95.0834961,13.6369629 94.9560547,13.2744141 94.9414062,12.8027344 L94.9414062,12.8027344 L98.1801758,12.8027344 L98.1801758,12.2446289 C98.1801758,11.5620117 97.9941406,11.0258789 97.6220703,10.6362305 C97.25,10.246582 96.7431641,10.0517578 96.1015625,10.0517578 C95.4101562,10.0517578 94.8666992,10.2788086 94.4711914,10.7329102 C94.0756836,11.1870117 93.8779297,11.8110352 93.8779297,12.6049805 C93.8779297,13.378418 94.0910645,13.9855957 94.517334,14.4265137 C94.9436035,14.8674316 95.534668,15.0878906 96.2905273,15.0878906 Z M97.1650391,12.0556641 L94.9589844,12.0556641 C94.9970703,11.6572266 95.1149902,11.3540039 95.3127441,11.1459961 C95.510498,10.9379883 95.7734375,10.8339844 96.1015625,10.8339844 C96.4296875,10.8339844 96.6875,10.9372559 96.875,11.1437988 C97.0625,11.3503418 97.1591797,11.6542969 97.1650391,12.0556641 L97.1650391,12.0556641 Z M104.011719,15 C104.679688,15 105.188721,14.8762207 105.538818,14.6286621 C105.888916,14.3811035 106.063965,14.0273438 106.063965,13.5673828 C106.063965,13.2597656 105.964355,13.0092773 105.765137,12.815918 C105.565918,12.6225586 105.278809,12.5039062 104.903809,12.4599609 L104.903809,12.4599609 L104.903809,12.4248047 C105.574707,12.3046875 105.910156,11.9575195 105.910156,11.3833008 C105.910156,10.5541992 105.274414,10.1396484 104.00293,10.1396484 L104.00293,10.1396484 L101.691406,10.1396484 L101.691406,15 L104.011719,15 Z M103.822754,12.0908203 L102.724121,12.0908203 L102.724121,10.921875 L103.976562,10.921875 C104.275391,10.921875 104.500244,10.9650879 104.651123,11.0515137 C104.802002,11.1379395 104.877441,11.277832 104.877441,11.4711914 C104.877441,11.7055664 104.788086,11.8674316 104.609375,11.9567871 C104.430664,12.0461426 104.168457,12.0908203 103.822754,12.0908203 L103.822754,12.0908203 Z M103.941406,14.2353516 L102.724121,14.2353516 L102.724121,12.8598633 L103.915039,12.8598633 C104.27832,12.8598633 104.550781,12.9089355 104.732422,13.0070801 C104.914062,13.1052246 105.004883,13.2714844 105.004883,13.5058594 C105.004883,13.9921875 104.650391,14.2353516 103.941406,14.2353516 L103.941406,14.2353516 Z" id="Загрузитев" fill="#363636" fill-rule="nonzero"></path>
                            <path d="M101.312492,30.8781448 L100.507475,31.6467203 C100.321433,31.7501727 100.136389,31.8702784 99.9518435,31.9555635 C99.3927208,32.2124282 98.8241215,32.2770229 98.318866,32.2770229 C97.7811905,32.2770229 96.9382669,32.2416977 96.078385,31.6124044 C94.8838276,30.7610669 94.3616139,29.2975941 94.3616139,28.0223542 C94.3616139,25.3820474 96.4858812,24.0871263 98.218613,24.0871263 C98.8241215,24.0871263 99.4460894,24.2405386 99.9518435,24.5640166 C100.792772,25.1266966 101.010236,25.8579284 101.130939,26.2495335 L97.1741857,27.8669233 L95.8783777,27.9688617 C96.2978444,30.1337922 97.745279,31.3928835 99.3448388,31.3928835 C100.143871,31.3928835 100.73691,31.1289537 101.281069,30.8569496 C101.281069,30.8569496 101.3903,30.79942 101.312492,30.8781448 L101.312492,30.8781448 Z M90.5629711,24.3071519 L89.4846274,24.9228197 L88.4392026,24.9228197 C88.8257504,25.2442791 89.6322638,25.9265602 89.6322638,27.220472 C89.6322638,28.4815819 88.9294949,29.0760546 88.2207408,29.6387347 C88.0032764,29.8602742 87.748903,30.1004856 87.748903,30.4719049 C87.748903,30.8488753 88.0032764,31.0532568 88.1863255,31.2056599 L88.7943278,31.6805316 C89.533507,32.3118435 90.2073471,32.8906722 90.2073471,34.0664969 C90.2073471,35.6682426 88.6751215,37.2836138 85.7797536,37.2836138 C83.3407616,37.2836138 82.1616661,36.1082938 82.1616661,34.8481932 C82.1616661,34.2350486 82.4634228,33.3665532 83.4589704,32.7715758 C84.5024001,32.1261338 85.9159182,32.0398394 86.6730532,31.9893748 C86.4366355,31.6805316 86.1668002,31.3570536 86.1668002,30.8291941 C86.1668002,30.5405367 86.2525889,30.3684525 86.335385,30.1655849 C86.1513383,30.1832475 85.9657954,30.2014147 85.7972106,30.2014147 C84.0121079,30.2014147 83.0030934,28.8540105 83.0030934,27.5262874 C83.0030934,26.7430771 83.3562235,25.8740771 84.0814371,25.2442791 C85.0410732,24.4449202 86.1852548,24.3071519 87.094515,24.3071519 L90.5629711,24.3071519 Z M93.7880269,20 C93.266312,20.3058154 93.1101966,20.4920297 93.0433612,21.0880163 L93.039371,30.7464322 C93.039371,31.4080228 93.1560835,31.5109706 93.709221,31.5629491 C93.9975108,31.597265 94.2848032,31.6124044 94.5691028,31.6467203 L93.9466362,32.0216721 L90.9804428,32.0216721 C91.3694845,31.5109706 91.4363198,31.4600014 91.4363198,31.1198701 L91.4363198,30.7398718 L91.4298358,20.6146586 L90.1200622,20.6146586 L91.3809562,20 L93.7880269,20 Z M97.745279,24.6487971 C98.6530429,24.6487971 99.4136692,25.4345306 99.4136692,26.1147931 C99.4136692,26.3519766 99.2465808,26.4539151 98.925372,26.5720022 L98.925372,26.5720022 L95.8614195,27.9173879 C95.8444612,27.6115725 95.8105448,27.3057572 95.8105448,27.0186137 C95.8105448,25.1786751 97.0729351,24.6487971 97.745279,24.6487971 Z M87.2466403,32.4829184 C87.1084806,32.4647511 87.0256845,32.4647511 86.8590949,32.4647511 C86.7064709,32.4647511 85.7972106,32.4980578 85.0929455,32.7372599 C84.7203632,32.8750282 83.6435158,33.2822773 83.6435158,34.4919133 C83.6435158,35.699026 84.8061519,36.56954 86.6047215,36.56954 C88.2207408,36.56954 89.0786275,35.7858251 89.0786275,34.7306108 C89.0786275,33.8621153 88.523495,33.403897 87.2466403,32.4829184 L87.2466403,32.4829184 Z M78.2562862,24.0871263 C80.730691,24.0871263 82.2803737,26.0471706 82.2803737,28.1051161 C82.2803737,30.1151203 80.7486468,32.2416977 78.0039079,32.2416977 C75.3284982,32.2416977 73.8970244,30.1337922 73.8970244,28.2252218 C73.8970244,25.995192 75.6965915,24.0871263 78.2562862,24.0871263 Z M86.0326307,24.8703366 C87.4316844,24.8703366 88.1534066,26.7778977 88.1534066,28.002673 C88.1534066,28.3110116 88.1194902,28.8540105 87.7304485,29.2471295 C87.4641046,29.5166104 87.0102226,29.7240198 86.588262,29.7240198 C85.1423238,29.7240198 84.4849431,27.8326074 84.4849431,26.6921079 C84.4849431,26.2495335 84.5702331,25.7892966 84.8550315,25.4345306 C85.1233705,25.0918761 85.5962058,24.8703366 86.0326307,24.8703366 Z M69.3003474,24.0871263 C71.7732558,24.0871263 73.3214422,26.0471706 73.3214422,28.1051161 C73.3214422,30.1151203 71.7917104,32.2416977 69.0464727,32.2416977 C66.3705643,32.2416977 64.9415843,30.1337922 64.9415843,28.2252218 C64.9415843,25.995192 66.7416502,24.0871263 69.3003474,24.0871263 Z M77.8208588,24.6154904 C79.908217,24.6154904 80.6144773,27.4758228 80.6144773,28.9756301 C80.6144773,29.6387347 80.5157205,30.3189972 80.1087231,30.8640147 C79.7211777,31.4080228 79.0493327,31.7304915 78.3909545,31.7304915 C76.3509795,31.7304915 75.5290043,28.9554443 75.5290043,27.2729552 C75.5290043,26.5381909 75.6462156,25.7892966 76.3035963,25.1933099 C76.7066035,24.8350114 77.2657262,24.6154904 77.8208588,24.6154904 Z M108.909279,24.0518011 C111.020578,24.0518011 112.442575,25.6722187 112.442575,28.2373333 C112.442575,30.7852899 111.020578,32.4395188 108.909279,32.4395188 C107.798016,32.4395188 106.802468,31.8596808 106.164041,30.9508138 L106.164041,35.2882444 L105.312638,35.2882444 L105.312638,24.2511362 L106.164041,24.2511362 L106.164041,25.5082089 C106.718675,24.6957291 107.732178,24.0518011 108.909279,24.0518011 Z M59.3737994,20.6989344 C60.2252022,20.6989344 61.0441848,20.8256005 61.7903467,21.031496 C62.9729337,21.3675901 63.5260711,21.7819043 63.8717197,22.0246389 L62.5609485,23.2842348 L62.0083098,23.409387 L62.4023392,22.7740379 C61.8686538,22.2466831 60.8875705,21.2732213 59.025657,21.2732213 C56.5362891,21.2732213 54.6584148,23.1878475 54.6584148,25.9830805 C54.6584148,28.9852184 56.802633,31.8092162 60.2416616,31.8092162 C61.2521724,31.8092162 61.772391,31.6038254 62.2447275,31.41206 L62.2447275,28.8383665 L59.8620966,28.9680604 L61.1249857,28.2817421 L64.468749,28.2817421 L64.0597565,28.6799077 C63.949528,28.7747811 63.9345649,28.8070784 63.9036411,28.9342492 C63.8871816,29.0795871 63.8717197,29.5418427 63.8717197,29.7043386 L63.8717197,31.6507575 L61.615278,32.1735705 C60.7010301,32.3194131 59.8800524,32.4475932 59.0106939,32.4475932 C54.6584148,32.4475932 53,29.2062532 53,26.6693988 C53,23.5713783 55.349712,20.6989344 59.3737994,20.6989344 Z M68.8629249,24.6154904 C70.948288,24.6154904 71.6565433,27.4758228 71.6565433,28.9756301 C71.6565433,29.6387347 71.5557915,30.3189972 71.1517867,30.8640147 C70.7632438,31.4080228 70.0923963,31.7304915 69.4355144,31.7304915 C67.3990309,31.7304915 66.5735642,28.9554443 66.5735642,27.2729552 C66.5735642,26.5381909 66.6902767,25.7892966 67.348655,25.1933099 C67.7526598,24.8350114 68.3057972,24.6154904 68.8629249,24.6154904 Z M124.125297,24.2511362 L127.00221,31.2324061 L129.851192,24.2511362 L130.81432,24.2511362 L126.723896,33.9978651 C126.299441,35.0021102 125.631587,35.4850562 124.714346,35.4850562 C124.439024,35.4850562 124.075919,35.4356009 123.863442,35.3694923 L124.009582,34.5746752 C124.191634,34.6569325 124.502368,34.707397 124.699383,34.707397 C125.2201,34.707397 125.582707,34.4919133 125.908405,33.7309074 L126.529375,32.3073016 L123.175636,24.2511362 L124.125297,24.2511362 Z M119.190952,24.0482686 C120.119165,24.0482686 120.870315,24.2743499 121.436421,24.7255032 C122.002027,25.1721148 122.285828,25.8175567 122.285828,26.6613245 L122.285828,30.6026082 C122.285828,30.8857144 122.299295,31.1592325 122.334209,31.4256854 C122.370121,31.6926431 122.427479,31.959096 122.503791,32.2169701 L121.522708,32.2169701 C121.465848,31.9399195 121.422954,31.6956709 121.391531,31.491794 C121.365595,31.2884218 121.350632,31.0805077 121.350632,30.8690611 C121.058851,31.3025519 120.645369,31.6633736 120.11717,31.9474892 C119.588473,32.2336234 119.08621,32.3739149 118.397407,32.3739149 C117.56795,32.3739149 116.924036,32.1675148 116.464667,31.7486588 C116.006795,31.3303074 115.776363,30.7635902 115.776363,30.0464885 C115.776363,29.3303961 116.110041,28.7490441 116.775402,28.3044512 C117.440763,27.8578397 118.300645,27.6357955 119.365023,27.6357955 L121.350632,27.6357955 L121.350632,26.6431572 C121.350632,26.0713936 121.158106,25.6217542 120.773553,25.295753 C120.387504,24.9692471 119.845839,24.804228 119.143569,24.804228 C118.50165,24.804228 117.980932,24.9551171 117.584409,25.2488209 C117.191377,25.5485805 116.993365,25.9199998 116.993365,26.3676206 L116.122012,26.3676206 L116.104056,26.3247257 C116.072633,25.7211694 116.345461,25.1917959 116.925532,24.7345868 C117.50311,24.2778824 118.259746,24.0482686 119.190952,24.0482686 Z M114.456115,21.2035802 L114.456115,32.2406884 L113.605211,32.2406884 L113.605211,21.2035802 L114.456115,21.2035802 Z M108.765633,24.8294603 C110.531782,24.8294603 111.527828,26.3040353 111.527828,28.2373333 C111.527828,30.1736592 110.531782,31.6608504 108.765633,31.6608504 C107.668834,31.6608504 106.619918,30.7570298 106.164041,29.9950146 L106.164041,29.9950146 L106.164041,26.4619894 C106.619918,25.7014882 107.668834,24.8294603 108.765633,24.8294603 Z M118.50165,31.5891907 C119.224868,31.5891907 119.744588,31.4256854 120.27578,31.1022075 C120.80348,30.7807481 121.162595,30.3613875 121.350632,29.8537138 L121.350632,28.3195906 L119.355546,28.3195906 C118.593424,28.3195906 117.962478,28.4901609 117.4662,28.8343293 C116.968925,29.1774884 116.717046,29.5928119 116.717046,30.0757579 C116.717046,30.5314531 116.876653,30.8958074 117.193871,31.1718486 C117.512087,31.4509177 117.947016,31.5891907 118.50165,31.5891907 L118.50165,31.5891907 Z" id="Combined-Shape" fill="#363636"></path>
                            <path d="M18.6381523,10 L29.8003707,22.658293 L18.7394379,35.191059 C18.2915374,35.0704129 18,34.6257273 18,33.9375965 L18,11.2234108 C18,10.6392063 18.2074217,10.2293528 18.5433952,10.0447294 L18.6381523,10 Z M30.4393085,23.3828678 L33.7117858,27.0939558 L20.2759975,34.7089096 L30.4393085,23.3828678 Z M34.7032089,18.6311571 L39.8932597,21.5733874 C40.8759337,22.1304635 40.8849203,23.028464 39.8932597,23.5905039 L34.5719057,26.6064688 L31.1010293,22.645443 L34.7032089,18.6311571 Z M20.5557597,10.6109941 L33.8043058,18.1215706 L30.4586811,21.9123839 L20.5557597,10.6109941 Z" id="Combined-Shape" fill="#363636"></path>
                        </g>
                    </g>
                </g>
            </g>
        </g>
    </g>
</svg>