<svg xmlns="http://www.w3.org/2000/svg" viewBox="0 0 38 38">
  <defs/>
  <path fill="currentColor" d="M.7152 38C.3202 38 0 37.5523 0 37s.3202-1 .7152-1h36.5696c.395 0 .7152.4477.7152 1s-.3202 1-.7152 1H.7152z"/>
  <path fill="currentColor" fill-rule="evenodd" d="M7.3077 29H2.6923C2.31 29 2 29.3076 2 29.687v7.626c0 .3794.31.687.6923.687h4.6154C7.69 38 8 37.6924 8 37.313v-7.626c0-.3794-.31-.687-.6923-.687zm-3.923 7.626v-6.252h3.2307v6.252H3.3846zM16.3077 21h-4.6154c-.3823 0-.6923.314-.6923.7015v15.597c0 .3874.31.7015.6923.7015h4.6154c.3823 0 .6923-.3141.6923-.7015v-15.597c0-.3874-.31-.7015-.6923-.7015zm-.6923 15.597h-3.2308V22.403h3.2308v14.194zM26.3077 24h-4.6154c-.3823 0-.6923.3171-.6923.7083v12.5834c0 .3912.31.7083.6923.7083h4.6154c.3823 0 .6923-.3171.6923-.7083V24.7083c0-.3912-.31-.7083-.6923-.7083zm-3.923 12.5835v-11.167h3.2307v11.167h-3.2308zM35.3077 13h-4.6154c-.3823 0-.6923.3168-.6923.7075v23.585c0 .3907.31.7075.6923.7075h4.6154c.3823 0 .6923-.3168.6923-.7075v-23.585c0-.3907-.31-.7075-.6923-.7075zm-.6923 23.5849h-3.2308V14.4151h3.2308v22.1698zM4.5 21C5.8806 21 7 19.8806 7 18.5S5.8806 16 4.5 16 2 17.1194 2 18.5 3.1194 21 4.5 21zm0-3.4536c.5266 0 .9536.427.9536.9536s-.427.9536-.9536.9536-.9536-.427-.9536-.9536.427-.9536.9536-.9536zM14.5 13c1.3806 0 2.5-1.1194 2.5-2.5001C17 9.1296 15.8962 8.0372 14.5209 8 13.1194 7.9997 12 9.1192 12 10.4999 12 11.8806 13.1194 13 14.5 13zm0-3.4538c.5295.0146.9536.4343.9536.9537 0 .5266-.427.9536-.9536.9536s-.9536-.427-.9536-.9536c0-.5267.427-.9537.9536-.9537zM23.5 16c1.3806 0 2.5-1.1194 2.5-2.5S24.8806 11 23.5 11 21 12.1194 21 13.5s1.1194 2.5 2.5 2.5zm0-3.4536c.5266 0 .9536.427.9536.9536s-.427.9536-.9536.9536-.9536-.427-.9536-.9536.427-.9536.9536-.9536zM33.5 5C34.8806 5 36 3.8806 36 2.5S34.8806 0 33.5 0 31 1.1194 31 2.5 32.1194 5 33.5 5zm0-3.4536c.5266 0 .9536.427.9536.9536s-.427.9536-.9536.9536-.9536-.427-.9536-.9536.427-.9536.9536-.9536z"/>
  <path fill="currentColor" d="M7.0992 17.8422a.6627.6627 0 01-.944-.0879c-.237-.2894-.1982-.7193.0864-.9602l6.6592-5.6363a.6627.6627 0 01.944.0879c.237.2894.1982.7193-.0864.9602l-6.6592 5.6363zM16 11.5289L16.386 10 22 12.4711 21.614 14 16 11.5289zM31.7308 3.2455c.26-.2955.7158-.329 1.018-.0747.3023.2542.3366.6999.0765.9954l-7.556 8.5883c-.2601.2955-.716.329-1.0182.0747-.3022-.2542-.3365-.6999-.0764-.9954l7.556-8.5883z"/>
</svg>
