<svg xmlns="http://www.w3.org/2000/svg" viewBox="0 0 587 424">
  <defs/>
  <path fill-rule="evenodd" d="M202.923.0088c1.257-.0117 2.516-.0117 3.776 0h-3.776zM394.33 423.963c-14.254-.256-28.706-2.241-43.096-6.103-21.813-5.804-41.725-15.51-58.935-28.117-42.225 20.012-91.555 25.615-140.284 12.607C42.8491 373.133-21.9899 260.865 7.3278 151.7 31.6286 60.9044 113.311.8416 202.923.0088H0V423.963h394.33zm6.362 0H587V.0088H206.699c16.913.1572 34.083 2.4285 51.179 7.0042 41.425 11.1067 76.346 34.1205 102.262 64.3386 26.716-5.7034 55.133-5.4032 83.35 2.2013C538.647 98.9682 595.081 196.627 569.565 291.784c-21.076 78.604-91.449 130.786-168.873 132.179zm0 0h-6.362c2.125.039 4.246.039 6.362 0zM517.334 39.3324c-14.709-3.9024-29.718 4.8029-33.72 19.4116-4.003 14.6088 4.803 29.7179 19.412 33.7203 14.708 3.9024 29.717-4.8029 33.72-19.4117 4.002-14.6087-4.703-29.7178-19.412-33.7202zm43.126 15.3092c1.901-7.2044 9.306-11.4069 16.51-9.5057 7.204 1.9011 11.507 9.3056 9.506 16.5099-1.902 7.2043-9.306 11.4068-16.51 9.5057-7.205-1.9011-11.407-9.3056-9.506-16.5099zM80.1715 404.852c1.9012-7.204 9.3056-11.407 16.51-9.506 7.2045 1.901 11.5065 9.306 9.5055 16.51-1.901 7.205-9.3054 11.407-16.5098 9.506-7.2043-1.901-11.4068-9.306-9.5057-16.51z"/>
</svg>
