<svg xmlns="http://www.w3.org/2000/svg" viewBox="0 0 55 37">
  <defs/>
  <path fill="none" stroke="currentColor" stroke-width="2" d="M4.499 9h32.002q.1473 0 .294.0144.1466.0145.2911.0432.1445.0288.2855.0715.1409.0428.2771.0992.1361.0564.266.1258.13.0695.2525.1513.1225.0819.2363.1753.1139.0935.2181.1977.1042.1042.1977.218.0934.114.1753.2364.0818.1226.1513.2525.0694.13.1258.266.0564.1362.0992.2771.0427.141.0715.2855.0287.1445.0432.2912.0144.1466.0144.2939v21.002q0 .1473-.0144.294-.0145.1466-.0432.2911-.0288.1445-.0715.2855-.0428.141-.0992.2771-.0564.1361-.1258.266-.0695.13-.1513.2525-.0819.1225-.1753.2363-.0935.1139-.1977.2181-.1042.1042-.2181.1977-.1139.0934-.2364.1753-.1225.0818-.2524.1513-.1299.0694-.266.1258-.1362.0564-.2771.0992-.141.0427-.2855.0715-.1445.0287-.2911.0432-.1467.0144-.294.0144H4.499q-.1473 0-.294-.0144-.1466-.0145-.291-.0432-.1446-.0288-.2856-.0715-.141-.0428-.277-.0992-.1362-.0564-.2661-.1258-.13-.0695-.2525-.1513-.1225-.0819-.2364-.1753-.1138-.0935-.218-.1977-.1042-.1042-.1977-.2181-.0934-.1138-.1753-.2363-.0818-.1225-.1513-.2525-.0694-.1299-.1258-.266-.0564-.1361-.0992-.2771-.0427-.141-.0715-.2855-.0287-.1445-.0432-.2911-.0144-.1467-.0144-.294V11.999q0-.1473.0144-.294.0145-.1466.0432-.291.0288-.1446.0715-.2856.0428-.141.0992-.277.0564-.1362.1258-.2661.0695-.13.1513-.2525.0819-.1225.1753-.2363.0935-.114.1977-.2181.1042-.1042.218-.1977.114-.0934.2364-.1753.1225-.0818.2525-.1513.13-.0694.266-.1258.1361-.0564.2771-.0992.141-.0427.2855-.0715.1445-.0287.2912-.0432Q4.3517 9 4.499 9z"/>
  <path fill="currentColor" d="M1 22h38v5H1v-5zM9.5 18c1.3807 0 2.5-1.1193 2.5-2.5S10.8807 13 9.5 13 7 14.1193 7 15.5 8.1193 18 9.5 18z"/>
  <path fill="currentColor" d="M13.5 18c1.3807 0 2.5-1.1193 2.5-2.5S14.8807 13 13.5 13 11 14.1193 11 15.5s1.1193 2.5 2.5 2.5z"/>
  <path fill="none" stroke="currentColor" stroke-width="2" d="M15.5 9.6668V3.999q0-.1473.0144-.294.0145-.1466.0432-.291.0288-.1446.0715-.2856.0428-.141.0992-.277.0564-.1362.1258-.2661.0695-.13.1513-.2525.0819-.1225.1753-.2364.0935-.1138.1977-.218.1042-.1042.218-.1977.114-.0934.2364-.1753.1226-.0818.2525-.1513.13-.0694.266-.1258.1362-.0564.2771-.0992.141-.0427.2855-.0715.1445-.0287.2912-.0432Q18.3517 1 18.499 1h32.002q.1473 0 .294.0144.1466.0145.2911.0432.1445.0288.2855.0715.1409.0428.2771.0992.1361.0564.266.1258.13.0695.2525.1513.1225.0819.2363.1753.1139.0935.2181.1977.1042.1042.1977.218.0934.114.1753.2364.0818.1225.1513.2525.0694.13.1258.266.0564.1361.0992.2771.0427.141.0715.2855.0287.1445.0432.2912.0144.1466.0144.2939v21.002q0 .1473-.0144.294-.0145.1466-.0432.2911-.0288.1445-.0715.2855-.0428.141-.0992.2771-.0564.1361-.1258.266-.0695.13-.1513.2525-.0819.1225-.1753.2363-.0935.1139-.1977.2181-.1042.1042-.2181.1977-.1139.0934-.2364.1753-.1225.0818-.2524.1513-.1299.0694-.266.1258-.1362.0564-.2771.0992-.141.0427-.2855.0715-.1445.0287-.2911.0432-.1467.0144-.294.0144H39.8459"/>
  <path fill="currentColor" d="M39.999 6h5.002q.0984 0 .1949.0192.0965.0192.1874.0568.0909.0377.1727.0924.0818.0546.1514.1242.0696.0696.1242.1514.0547.0818.0924.1727.0376.0909.0568.1874Q46 6.9006 46 6.999v3.002q0 .0984-.0192.1949-.0192.0965-.0569.1874-.0376.0909-.0923.1727-.0546.0818-.1242.1514-.0696.0696-.1514.1242-.0818.0547-.1727.0923-.0909.0377-.1874.0569Q45.0994 11 45.001 11h-5.002q-.0984 0-.1949-.0192-.0965-.0192-.1874-.0569-.0909-.0376-.1727-.0923-.0818-.0546-.1514-.1242-.0696-.0696-.1242-.1514-.0547-.0818-.0924-.1727-.0376-.0909-.0568-.1874Q39 10.0994 39 10.001V6.999q0-.0984.0192-.1949.0192-.0965.0568-.1874.0377-.0909.0924-.1727.0546-.0818.1242-.1514.0696-.0696.1514-.1242.0818-.0547.1727-.0924.0909-.0376.1874-.0568Q39.9006 6 39.999 6zM39 15h15v5H39v-5z"/>
  <path fill="none" stroke="currentColor" stroke-linecap="square" d="M7 30h10M21 30h2M25 30h2"/>
</svg>
