<svg xmlns="http://www.w3.org/2000/svg" xmlns:xlink="http://www.w3.org/1999/xlink" viewBox="0 0 44 41">
  <defs/>
  <defs>
    <clipPath id="b">
      <use xlink:href="#a"/>
    </clipPath>
    <path fill="none" id="a" d="M7.999 0h26.002q.1964 0 .3925.0096.1961.0097.3915.029.1955.0192.3897.048.1942.0288.3868.0671.1926.0383.3831.086.1905.0477.3784.1047t.3728.1232q.1849.0661.3663.1413.1814.0751.3589.159.1775.084.3507.1766.1732.0926.3416.1935.1684.101.3317.21.1633.1092.321.2261.1577.117.3095.2416t.2973.2564q.1455.1319.2843.2708.1389.1388.2708.2843.1318.1455.2564.2973.1246.1518.2415.3095.117.1577.2261.321.1091.1633.2101.3317.1009.1684.1935.3416.0926.1732.1765.3507.084.1775.1591.359.0752.1813.1413.3662.0662.1849.1232.3728.057.188.1047.3784.0477.1905.086.383.0383.1927.0671.3869.0288.1942.0481.3897.0192.1954.0289.3915Q42 7.8026 42 7.999v23.002q0 .1964-.0096.3925-.0097.1961-.0289.3915-.0193.1955-.0481.3897-.0288.1942-.0671.3868-.0383.1926-.086.3831-.0477.1905-.1047.3784t-.1232.3728q-.0661.1849-.1413.3663-.0751.1814-.1591.3589-.084.1775-.1765.3507-.0926.1732-.1935.3416-.101.1684-.2101.3317t-.2261.321q-.1169.1577-.2415.3095-.1246.1518-.2564.2973-.1319.1455-.2708.2843-.1388.1389-.2843.2708-.1455.1318-.2973.2564-.1518.1246-.3095.2416-.1577.1169-.321.226t-.3317.2101q-.1684.1009-.3416.1935-.1732.0926-.3507.1765-.1775.084-.3589.1591-.1814.0752-.3663.1413-.1849.0662-.3728.1232-.1879.057-.3784.1047t-.3831.086q-.1926.0383-.3868.0671-.1942.0288-.3897.0481-.1954.0192-.3915.0289Q34.1974 39 34.001 39H7.999q-.1964 0-.3925-.0096-.1961-.0097-.3915-.0289-.1955-.0193-.3897-.0481-.1942-.0288-.3868-.0671-.1926-.0383-.3831-.086-.1905-.0477-.3784-.1047t-.3728-.1232q-.1849-.0661-.3663-.1413-.1814-.0751-.359-.1591-.1774-.0839-.3506-.1765-.1732-.0926-.3416-.1935-.1684-.101-.3317-.2101t-.321-.226q-.1577-.117-.3095-.2416t-.2973-.2564q-.1455-.1319-.2844-.2708-.1388-.1388-.2707-.2843-.1318-.1455-.2564-.2973-.1246-.1518-.2416-.3095t-.226-.321q-.1091-.1633-.21-.3317-.101-.1684-.1936-.3416-.0926-.1732-.1765-.3507-.084-.1775-.1591-.3589-.0752-.1814-.1413-.3663-.0662-.1849-.1232-.3728-.057-.1879-.1047-.3784t-.086-.3831q-.0383-.1926-.0671-.3868-.0288-.1942-.048-.3897-.0193-.1954-.029-.3915Q0 31.1974 0 31.001V7.999q0-.1964.0096-.3925.0097-.1961.029-.3915.0192-.1955.048-.3897.0288-.1942.0671-.3868.0383-.1926.086-.3831.0477-.1905.1047-.3784t.1232-.3728q.0661-.1849.1413-.3663.0751-.1814.159-.359.084-.1774.1766-.3506.0926-.1732.1935-.3416.101-.1684.21-.3317.1092-.1633.2261-.321.117-.1577.2416-.3095t.2564-.2973q.1319-.1455.2708-.2844.1388-.1388.2843-.2707.1455-.1318.2973-.2564.1518-.1246.3095-.2416t.321-.226q.1633-.1091.3317-.21.1684-.101.3416-.1936Q4.4015.852 4.579.768q.1775-.084.359-.1591.1813-.0752.3662-.1413.1849-.0662.3728-.1232.188-.057.3784-.1047.1905-.0477.383-.086.1927-.0383.3869-.0671.1942-.0288.3897-.048.1954-.0193.3915-.029Q7.8026 0 7.999 0z"/>
  </defs>
  <g clip-path="url(#b)" transform="translate(1 1)">
    <use fill="none" stroke="currentColor" stroke-width="4" xlink:href="#a"/>
  </g>
  <path fill="none" stroke="currentColor" stroke-linecap="square" stroke-width="2" d="M10 10.6667L12.0687 12 16 8M23 11h9M23 21h9M23 30h9M10 20.6667L12.0687 22 16 18M10 29.6667L12.0687 31 16 27"/>
</svg>
