<svg xmlns="http://www.w3.org/2000/svg" viewBox="0 0 102 102">
  <defs/>
  <path fill="currentColor" d="M51 101c27.6142 0 50-22.3858 50-50S78.6142 1 51 1 1 23.3858 1 51s22.3858 50 50 50z"/>
  <g fill="none" stroke="#FFF" stroke-width="2">
    <path d="M76.6797 38.4146c-4.8265-9.6342-14.791-16.2478-26.3002-16.2478-11.1706 0-20.886 6.2301-25.861 15.4053"/>
    <path d="M69.414 43.2259c-3.482-6.9727-10.6705-11.7593-18.9734-11.7593-8.0585 0-15.0673 4.509-18.6564 11.1495"/>
    <path d="M62.0645 47.9296c-2.1219-4.1836-6.5024-7.0556-11.5619-7.0556-4.9107 0-9.1817 2.7055-11.3688 6.6898"/>
  </g>
  <path fill="#FFF" fill-rule="evenodd" d="M69.557 64.5002H32.3974q-.0982 0-.196.0097-.0976.0096-.194.0288-.0963.0191-.1902.0476-.094.0285-.1847.0661-.0908.0376-.1774.0839t-.1683.1008q-.0816.0546-.1575.1169-.076.0623-.1454.1317-.0694.0695-.1317.1454-.0623.076-.1169.1576-.0545.0816-.1008.1682-.0463.0866-.0839.1774-.0376.0907-.066.1847-.0286.094-.0478.1903-.0191.0963-.0287.194-.0097.0978-.0097.196v5.4094q0 .0982.0097.196.0096.0977.0287.194.0192.0963.0477.1903t.0661.1847q.0376.0907.0839.1773.0463.0866.1008.1683.0546.0816.1169.1576.0623.0759.1317.1453.0695.0695.1454.1317.0759.0624.1575.1169.0817.0546.1683.1009.0866.0463.1774.0838.0907.0376.1847.0661.094.0285.1902.0477.0964.0192.194.0288.0978.0096.196.0096H69.557q.0982 0 .196-.0096.0977-.0096.194-.0288.0963-.0192.1903-.0477t.1847-.066q.0907-.0376.1773-.084.0866-.0462.1683-.1008.0816-.0545.1575-.1168.076-.0623.1454-.1318.0694-.0694.1317-.1453.0623-.076.117-.1576.0545-.0817.1007-.1683.0463-.0866.084-.1773.0375-.0907.066-.1847.0285-.094.0477-.1903.0191-.0963.0288-.194.0096-.0978.0096-.196v-5.4094q0-.0982-.0096-.196-.0097-.0977-.0288-.194-.0192-.0963-.0477-.1903t-.066-.1847q-.0377-.0908-.084-.1774-.0462-.0866-.1008-.1682-.0546-.0817-.1169-.1576-.0623-.076-.1317-.1454-.0694-.0694-.1454-.1317-.0759-.0623-.1575-.1169-.0817-.0545-.1683-.1008-.0866-.0463-.1773-.0839-.0908-.0376-.1847-.066-.094-.0286-.1903-.0477-.0963-.0192-.194-.0288-.0978-.0097-.196-.0097zM62.1486 70.38c.6494 0 1.176-.5264 1.176-1.1759 0-.6494-.5266-1.176-1.176-1.176-.6495 0-1.176.5266-1.176 1.176 0 .6495.5265 1.176 1.176 1.176zm4.7041 0c.6494 0 1.176-.5264 1.176-1.1759 0-.6494-.5266-1.176-1.176-1.176-.6495 0-1.176.5266-1.176 1.176 0 .6495.5265 1.176 1.176 1.176z"/>
  <path fill="#FFF" d="M50.158 48.0372h.4619q.0948 0 .188.0179t.1814.053q.0882.035.1682.0861.08.051.1489.1163.069.0652.1243.1422.0555.077.0954.1632.04.086.063.1781.023.092.0282.1868l1.065 19.1687q.0028.0508.0004.1015-.0023.0508-.0098.1011-.0075.0502-.02.0995-.0126.0492-.03.097-.0175.0476-.0398.0933-.0222.0457-.049.089-.0267.0431-.0577.0834t-.0659.0772q-.035.037-.0734.0701-.0385.0332-.0801.0623-.0417.0291-.086.0538-.0445.0247-.0912.0448-.0466.0201-.095.0354-.0486.0152-.0983.0255-.0498.0103-.1004.0154-.0505.0052-.1013.0052H49.093q-.0508 0-.1013-.0052-.0506-.0052-.1003-.0154-.0498-.0103-.0983-.0255-.0485-.0153-.0951-.0354-.0467-.02-.091-.0448-.0445-.0247-.0861-.0538-.0417-.029-.0802-.0623-.0385-.0332-.0734-.07-.035-.037-.0659-.0773-.031-.0403-.0577-.0835-.0268-.0432-.049-.0889-.0222-.0457-.0397-.0934-.0175-.0477-.03-.0969-.0126-.0493-.02-.0995-.0076-.0503-.0099-.101-.0023-.0508.0005-.1016l1.065-19.1687q.0052-.0947.0282-.1868.023-.092.063-.1781.0398-.0861.0953-.1632.0554-.077.1243-.1422.069-.0652.149-.1163.08-.051.1681-.0861.0882-.0351.1814-.053t.188-.0179z"/>
</svg>
