<svg xmlns="http://www.w3.org/2000/svg" viewBox="0 0 86 86">
  <defs/>
  <path fill="#E1654F" d="M43 85.5c23.4721 0 42.5-19.0279 42.5-42.5S66.4721.5 43 .5.5 19.5279.5 43 19.5279 85.5 43 85.5z"/>
  <g fill="none" stroke="#FFEBC6">
    <path d="M64.8573 32.317C60.7528 24.1242 52.2792 18.5 42.4919 18.5c-9.4993 0-17.7612 5.298-21.9919 13.1005"/>
    <path d="M58.6787 36.4085c-2.961-5.9295-9.0741-10-16.1348-10-6.853 0-12.8131 3.8345-15.8652 9.4814"/>
    <path d="M52.4287 40.4085c-1.8044-3.5577-5.5295-6-9.8322-6-4.176 0-7.808 2.3007-9.6678 5.6889"/>
  </g>
  <path fill="#FFF" fill-rule="evenodd" d="M58.501 54.5H27.499q-.0982 0-.196.0096-.0977.0097-.194.0288-.0963.0192-.1903.0477t-.1847.066q-.0907.0376-.1773.084-.0866.0462-.1683.1008-.0816.0546-.1576.1169-.0759.0623-.1453.1317-.0694.0694-.1317.1453-.0623.076-.117.1576-.0545.0817-.1008.1683-.0463.0866-.0838.1773-.0376.0907-.0661.1847-.0285.094-.0477.1903-.0191.0963-.0288.194-.0096.0978-.0096.196v4.002q0 .0982.0096.196.0097.0977.0288.194.0192.0963.0477.1903t.066.1847q.0376.0907.084.1773.0462.0866.1008.1683.0546.0816.1169.1576.0623.0759.1317.1453.0694.0695.1453.1318.076.0623.1576.1168.0817.0546.1683.1009.0866.0463.1773.0838.0907.0376.1847.0661.094.0285.1903.0477t.194.0288q.0978.0096.196.0096h31.002q.0982 0 .1959-.0096.0978-.0096.1941-.0288.0963-.0192.1903-.0477t.1847-.066q.0907-.0376.1773-.084.0866-.0462.1683-.1008.0816-.0545.1575-.1168.076-.0623.1454-.1318.0694-.0694.1317-.1453.0623-.076.1169-.1576.0546-.0817.1009-.1683.0463-.0866.0838-.1773.0376-.0907.0661-.1847.0285-.094.0477-.1903t.0288-.194q.0096-.0978.0096-.196v-4.002q0-.0982-.0096-.196-.0096-.0977-.0288-.194-.0192-.0963-.0477-.1903t-.0661-.1847q-.0375-.0907-.0838-.1773-.0463-.0866-.1009-.1683-.0546-.0816-.1169-.1576-.0623-.0759-.1317-.1453-.0694-.0694-.1454-.1317-.0759-.0623-.1575-.117-.0817-.0545-.1683-.1008-.0866-.0463-.1773-.0838-.0907-.0376-.1847-.0661-.094-.0285-.1903-.0477-.0963-.0191-.1941-.0288-.0977-.0096-.1959-.0096zm-6.001 5c.5523 0 1-.4477 1-1s-.4477-1-1-1-1 .4477-1 1 .4477 1 1 1zm4 0c.5523 0 1-.4477 1-1s-.4477-1-1-1-1 .4477-1 1 .4477 1 1 1z"/>
  <path fill="#FFF" d="M42.445 40.5h.11q.0949 0 .188.0179.0933.0178.1814.053.0882.035.1682.086.08.0512.1489.1164.069.0652.1243.1422.0555.077.0954.1631.04.0861.063.1782.023.092.0282.1868l.889 16.002q.0028.0507.0005.1015-.0023.0507-.0098.101-.0075.0503-.02.0995-.0126.0492-.03.097-.0175.0477-.0398.0934-.0222.0457-.049.0889-.0267.0432-.0577.0834-.031.0403-.066.0772-.0348.0369-.0733.0701-.0385.0332-.0802.0623-.0416.0291-.086.0538-.0444.0248-.091.0449-.0467.0201-.0952.0353-.0485.0153-.0982.0255-.0498.0103-.1004.0154-.0505.0052-.1013.0052h-1.888q-.0508 0-.1013-.0052-.0506-.0051-.1003-.0154-.0498-.0102-.0983-.0255-.0485-.0152-.0951-.0353-.0467-.0201-.091-.0449-.0445-.0247-.0861-.0538-.0417-.0291-.0802-.0623-.0385-.0332-.0734-.0701-.035-.0369-.0659-.0772-.031-.0402-.0577-.0834-.0268-.0432-.049-.0889-.0222-.0457-.0397-.0934-.0175-.0478-.03-.097-.0126-.0492-.02-.0995-.0076-.0503-.0099-.101-.0023-.0508.0005-.1015l.889-16.002q.0052-.0948.0283-.1868.023-.092.0629-.1782.04-.086.0953-.163.0555-.0771.1244-.1423.069-.0652.149-.1163.08-.051.168-.0862.0882-.035.1814-.053.0932-.0178.1881-.0178z"/>
</svg>
