<svg xmlns="http://www.w3.org/2000/svg" viewBox="0 0 280 280">
  <defs/>
  <path fill="#E1654F" d="M0 140C0 62.6801 62.6801 0 140 0c77.32 0 140 62.6801 140 140 0 77.32-62.68 140-140 140C62.6801 280 0 217.32 0 140z"/>
  <path fill="#2E62B6" d="M21 143C21 77.2781 74.2781 24 140 24c65.722 0 119 53.2781 119 119 0 65.722-53.278 119-119 119-65.7219 0-119-53.278-119-119z"/>
  <path fill="#ABC3ED" d="M40 140.5C40 84.9954 84.9954 40 140.5 40 196.005 40 241 84.9954 241 140.5c0 55.505-44.995 100.5-100.5 100.5C84.9954 241 40 196.005 40 140.5z"/>
</svg>
