<svg xmlns="http://www.w3.org/2000/svg" viewBox="0 0 50 49">
  <defs/>
  <path fill="currentColor" fill-rule="nonzero" d="M24 0v6h13v6h13v37H26v-6H13v-6H0V0h24zm24 14H37v2h8v13h-8v3h8.5v2H37v1h8.5v2H37v1h8.5v2H37v3h-.118l.0096.0152L30.362 47H48V14zM33.077 43H28v3.098L33.077 43zM35 8H24v3h8v2h-8v2h8v2h-8v2h8v2h-8v2h4v2h-4v12h-.118l.0096.0152L17.362 41H35V8zM20.077 37H15v3.098L20.077 37zM22 2H2v33h20V2zm21 16h-6v9h6v-9zm-11 5v2h-2.5v-2H32zm-16-2v2H3.5v-2H16zm4 0v2h-2.5v-2H20zm0-3v2H3.5v-2H20zm0-14v12H4V4h16zm-2 2H6v8h12V6z"/>
</svg>
