<svg xmlns="http://www.w3.org/2000/svg" viewBox="0 0 42 38">
  <defs/>
  <path fill="currentColor" fill-rule="evenodd" d="M26.6227 5.8985c-.0181.0181-.0414.0242-.0604.0406-.0164.019-.0233.044-.0415.0622L12.3731 20.1482c-.0061.006-.0147.0078-.0208.0138-.025.0242-.0587.0371-.0863.0579-.0657.0483-.1304.0958-.2047.1235-.0034.0017-.006.0043-.0095.006l-5.7145 2.0545a.8801.8801 0 01-.292.051.864.864 0 01-.8127-1.1555l2.053-5.718c.0025-.0078.0085-.0121.012-.0199.012-.0328.038-.0604.0544-.0915.0389-.0717.0769-.1417.1321-.1978.0018-.0026.0026-.006.0052-.0086l14.1452-14.147c.019-.019.044-.0258.0639-.0423.0164-.019.0225-.0431.0406-.0613C22.3919.3601 23.259 0 24.1813 0c.9223 0 1.7894.3601 2.4423 1.013.6529.652 1.0122 1.52 1.0122 2.4423 0 .9241-.3593 1.7912-1.0131 2.4432zm-3.6626-3.6643c-.0189.019-.044.0259-.0639.0423-.0164.019-.0224.0432-.0405.0613L8.8443 16.3517l-1.367 3.8068 3.8154-1.3714 14.007-14.007c.0181-.0181.0423-.0242.0613-.0406.0164-.0198.0233-.0449.0423-.0639a1.7147 1.7147 0 00.5052-1.2203c0-.4603-.1796-.8955-.506-1.2211-.6529-.653-1.7895-.653-2.4424 0zM37.9421 38H3.5115C1.5752 38.0001 0 36.4508 0 34.5456V10.3644c0-1.444.9068-2.6798 2.1875-3.1954V6.91h6.4487a.8634.8634 0 01.8636.8635.8634.8634 0 01-.8636.8636v.001l-3.4165-.001H3.5089c-.9828.0018-1.7817.7756-1.7817 1.7273v24.1812c0 .9526.8006 1.7264 1.7843 1.7264H37.942c.9837 0 1.7843-.7738 1.7843-1.7264V10.3644c0-.9517-.7989-1.7255-1.7817-1.7272h-2.8629l-5.7188.0008v-.0008a.8634.8634 0 01-.8636-.8637c0-.4767.386-.8636.8636-.8636h9.9031v.2591c1.2807.5156 2.1875 1.7514 2.1875 3.1954v24.1812c0 1.9052-1.5752 3.4545-3.5115 3.4545zM36.2719 22.455a.8633.8633 0 01-.8636.8636H18.136a.8634.8634 0 01-.8637-.8636c0-.4767.3861-.8645.8637-.8645h17.2723c.4776 0 .8636.3878.8636.8645zm-.8636 6.0453c.4776 0 .8636-.3869.8636-.8645 0-.4758-.386-.8627-.8636-.8627H6.0453c-.4776 0-.8636.3869-.8636.8627 0 .4776.386.8645.8636.8645h29.363z"/>
</svg>
