<svg xmlns="http://www.w3.org/2000/svg" viewBox="0 0 200 36">
  <defs/>
  <path fill="#FFF" d="M6.8674 27.4697L0 34.3372h6.8674v-6.8675M20.6016 20.6023l-3.4338-3.4337-3.4337 3.4337v13.7349h6.8675V20.6023M34.3364 13.7349l-6.8674 6.8674v13.7349h6.8674V13.7349M48.0713 0l-6.8674 6.8674v27.4698h6.8674V0"/>
  <path fill="#E1604D" d="M13.7686 3.4337h-.0682c-1.8774 0-3.4 1.5219-3.4 3.3992v.069c0 1.8774 1.5226 3.3992 3.4 3.3992h.0682c1.8774 0 3.3993-1.5218 3.3993-3.3992v-.069c0-1.8773-1.5219-3.3992-3.3993-3.3992"/>
  <path fill="#FFF" fill-rule="evenodd" d="M54.997 12.541h9.4597c6.9319 0 11.7273 4.4467 11.7273 11.0291 0 6.4958-4.8391 10.9862-11.9449 10.9862H54.997V12.541zm5.6237 17.5686h3.967c3.4438 0 5.8852-2.6598 5.8852-6.5395s-2.5717-6.5824-6.1028-6.5824h-3.7494v13.1219zM78.043 34.6292l9.6015-22.217h5.8123l9.3433 22.217h-6.0276l-1.5931-4.0905h-9.6882l-1.636 4.0905H78.043zm12.3134-16.5763l-3.2291 8.18h6.416l-3.187-8.18z"/>
  <path fill="#FFF" d="M116.9762 16.761c2.1096 0 4.3916.947 6.0705 2.4543l3.2291-3.9188c-2.3249-2.0666-5.8988-3.3578-9.2567-3.3578-7.1908 0-12.5295 4.951-12.5295 11.5387 0 6.5885 5.21 11.5824 12.1418 11.5824 3.1433 0 6.9754-1.2054 9.4291-2.9272v-8.8705h-4.9939v5.8551c-1.3778.6897-2.8421 1.1211-4.0475 1.1211-3.7464 0-6.6306-2.9287-6.6306-6.7609 0-3.8322 2.8413-6.7165 6.5877-6.7165M147.1417 26.1035L136.9808 12.498h-4.9517v22.0874h5.2529V20.98l10.1617 13.6054h4.9509V12.498h-5.2529v13.6054M164.6099 25.7165h10.5487V21.282h-10.5487v-4.3487h11.6682v-4.4352h-17.2659v22.0874h17.61v-4.4338h-12.0123v-4.4352M180.8375 12.498v4.5212h6.5877v17.5663h5.6407V17.0192h6.6306V12.498h-18.859"/>
</svg>
