<svg xmlns="http://www.w3.org/2000/svg" viewBox="0 0 473 342">
  <defs/>
  <path fill="currentColor" fill-rule="evenodd" d="M473 0v342H0V0h473zM5.9566 122.7133c-23.5473 87.8795 28.5336 178.1898 116.3258 201.7136 39.4424 10.5686 79.3826 5.8587 113.5475-10.5036 13.8139 10.0655 29.6793 17.805 47.1763 22.4934 76.3257 20.4514 154.7955-24.9052 175.2673-101.3068 20.4717-76.4017-24.8069-154.9166-101.1326-175.368-22.7468-6.095-45.684-6.345-67.2198-1.6703-20.8507-24.395-49.0348-42.9534-82.3666-51.8846C119.7623-17.3368 29.5038 34.8337 5.9565 122.7133zm71.8446 196.1029c-5.7962-1.5531-11.755 1.8908-13.3095 7.6921-1.5545 5.8013 1.8841 11.7633 7.6803 13.3164 5.7962 1.553 11.7551-1.8908 13.3096-7.6922 1.5544-5.8013-1.8842-11.7632-7.6804-13.3163zM416.248 32.1585c-11.807-3.1637-23.9455 3.8516-27.112 15.6692-3.1665 11.8175 3.838 23.9622 15.6451 27.1259 11.8071 3.1637 23.9456-3.8517 27.112-15.6692 3.1666-11.8175-3.838-23.9622-15.645-27.126zm47.9558 4.6495c-5.7962-1.5531-11.7551 1.8908-13.3096 7.6921-1.5544 5.8013 1.8842 11.7633 7.6804 13.3164 5.7962 1.553 11.755-1.8908 13.3095-7.6922 1.5545-5.8013-1.8841-11.7632-7.6803-13.3163z"/>
</svg>
