<svg xmlns="http://www.w3.org/2000/svg" viewBox="0 0 604 437">
  <defs/>
  <path fill="currentColor" fill-rule="evenodd" d="M604 0v437H0V0h604zM7.6053 156.8499C-22.4828 269.1404 44.0064 384.5212 156.1132 414.56c50.3662 13.4956 101.3712 7.4695 145.0035-13.444 17.6384 12.858 37.8971 22.7438 60.24 28.7305 97.4645 26.1156 197.6807-31.8537 223.839-129.478 26.1584-97.6243-31.6467-197.9353-129.1113-224.0508-29.0467-7.783-58.3379-8.0979-85.8403-2.1205-26.621-31.1656-62.6087-54.8723-105.1721-66.2771C152.9652-22.1188 37.6935 44.5594 7.6053 156.8499zm91.7061 250.5503c-7.4015-1.9832-15.0118 2.4184-16.998 9.8312-1.9863 7.4128 2.4036 15.0298 9.8051 17.013 7.4015 1.9832 15.0118-2.4183 16.998-9.8311 1.9863-7.4129-2.4036-15.0298-9.8051-17.013zm432.259-366.3386c-15.0771-4.0399-30.5795 4.9263-34.6256 20.0265-4.046 15.1001 4.8963 30.6163 19.9734 34.6561 15.0771 4.04 30.5795-4.9262 34.6256-20.0264 4.0461-15.1002-4.8963-30.6163-19.9734-34.6562zm61.239 5.931c-7.4015-1.9833-15.0117 2.4183-16.998 9.831-1.9863 7.4129 2.4036 15.0299 9.8051 17.0131 7.4015 1.9832 15.0118-2.4183 16.998-9.8311 1.9863-7.4129-2.4036-15.0299-9.805-17.013z"/>
</svg>
