<svg width="120" height="120" viewBox="0 0 120 120" fill="none" xmlns="http://www.w3.org/2000/svg">
<circle cx="60" cy="60" r="60" fill="#E1654F"/>
<path d="M87.0013 70.9272H79.1888C78.4753 70.9272 77.8867 70.3412 77.8867 69.6251C77.8867 68.9089 78.4753 68.323 79.1888 68.323H87.0013C87.7227 68.323 88.3034 68.9089 88.3034 69.6251C88.3034 70.3412 87.7253 70.9272 87.0013 70.9272Z" fill="white"/>
<path d="M89.6055 63.1147H79.1888C78.4753 63.1147 77.8867 62.5287 77.8867 61.8126C77.8867 61.0964 78.4753 60.5105 79.1888 60.5105H89.6055C90.3268 60.5105 90.9076 61.0964 90.9076 61.8126C90.9076 62.5287 90.3294 63.1147 89.6055 63.1147Z" fill="white"/>
<path d="M89.6055 55.3022H79.1888C78.4753 55.3022 77.8867 54.7162 77.8867 54.0001C77.8867 53.2839 78.4753 52.698 79.1888 52.698H89.6055C90.3268 52.698 90.9076 53.2839 90.9076 54.0001C90.9076 54.7162 90.3294 55.3022 89.6055 55.3022Z" fill="white"/>
<path d="M80.056 78.7395H58.7331C57.2826 78.7395 56.0117 78.25 55.0482 77.3177C54.2565 76.5546 53.2174 76.1354 52.1185 76.1354H50.5404C49.8268 76.1354 49.2383 75.5494 49.2383 74.8333C49.2383 74.1171 49.8268 73.5312 50.5404 73.5312H52.1133C53.8919 73.5312 55.5768 74.2109 56.8503 75.4427C57.3346 75.9088 57.944 76.1354 58.7305 76.1354H80.0534C82.6628 76.1354 84.082 74.9921 84.8086 74.0234C85.8529 72.6458 86.0352 70.9973 85.7435 69.9661C85.556 69.2994 85.9232 68.6067 86.582 68.388C87.7617 67.9947 88.3398 67.0546 88.6107 66.3385C89.1549 64.9036 88.9518 63.302 88.4674 62.4583C88.1289 61.8619 88.3034 61.1093 88.8737 60.7291C90.1211 59.8958 90.4466 58.3697 90.3424 57.3151C90.2409 56.2838 89.7617 55.4791 89.0951 55.1979C88.5221 54.9583 88.1966 54.3489 88.319 53.7343C88.444 53.1302 88.9779 52.6953 89.5951 52.6953C90.1836 52.6953 90.5299 52.6953 90.5299 50.7369C90.5299 48.2161 89.5794 47.4869 86.2904 47.4869H72.1992C71.793 47.4869 71.4102 47.2968 71.1654 46.9739C70.918 46.651 70.8398 46.2343 70.9466 45.8359C73.319 37.2708 71.4935 33.0781 69.2122 32.0911C68.0898 31.6015 66.8841 31.9218 66.1576 32.8463V38.6458C66.1576 39.5468 65.8685 40.3802 65.6289 41.0546C64.1888 45.1718 61.3919 48.8203 57.0794 52.2239C56.9154 52.3489 56.7852 52.4817 56.6576 52.6328C55.2904 54.2812 53.0221 55.2994 50.7461 55.2994C50.0326 55.2994 49.444 54.7109 49.444 53.9974C49.444 53.2838 50.0326 52.6953 50.7461 52.6953C52.2435 52.6953 53.7773 52.0156 54.6497 50.9635C54.8945 50.6718 55.168 50.4036 55.4648 50.1692C59.3763 47.0833 61.8971 43.8203 63.168 40.1875C63.3555 39.6484 63.5482 39.0937 63.5482 38.6328V32.4401C63.5482 32.1979 63.6133 31.9635 63.7383 31.7604C65.1003 29.5286 67.8294 28.6588 70.2409 29.6953C73.4414 31.0833 75.9701 35.7968 73.8737 44.8776H86.293C88.3424 44.8776 93.1367 44.8776 93.1367 50.7317C93.1367 51.4974 93.1367 53.3203 92.0352 54.4166C92.5247 55.1484 92.8424 56.052 92.9388 57.0651C93.1263 59.0312 92.4648 60.9088 91.1784 62.1901C91.6888 63.7421 91.6576 65.6536 91.0404 67.263C90.5169 68.6328 89.6133 69.7109 88.444 70.388C88.5898 72.1458 88.0195 74.0859 86.8737 75.5911C85.3555 77.6197 82.9284 78.7395 80.056 78.7395Z" fill="white"/>
<path fill-rule="evenodd" clip-rule="evenodd" d="M33.6146 78.7396H49.2396C49.9635 78.7396 50.5417 78.1536 50.5417 77.4375V51.3958C50.5417 50.6797 49.9583 50.0938 49.2396 50.0938H33.6146C32.901 50.0938 32.3125 50.6797 32.3125 51.3958V77.4375C32.3125 78.1536 32.901 78.7396 33.6146 78.7396ZM47.9375 76.1354H34.9167V52.6979H47.9375V76.1354Z" fill="white"/>
</svg>
