<?xml version="1.0" encoding="UTF-8"?>
<svg width="78px" height="64px" viewBox="0 0 78 64" version="1.1" xmlns="http://www.w3.org/2000/svg" xmlns:xlink="http://www.w3.org/1999/xlink">
    <!-- Generator: Sketch 62 (91390) - https://sketch.com -->
    <title>Combined Shape</title>
    <desc>Created with Sketch.</desc>
    <g id="Page-1" stroke="none" stroke-width="1" fill="none" fill-rule="evenodd" opacity="0.5">
        <g id="dagnet_about" transform="translate(-1331.000000, -4231.000000)" fill="#6D7D95" fill-rule="nonzero">
            <g id="Тапки" transform="translate(0.000000, 3595.000000)">
                <g id="Group-11" transform="translate(240.000000, 478.000000)">
                    <g id="Group-16" transform="translate(1091.000000, 158.000000)">
                        <path d="M33.43,55.69 C33.9633333,55.69 34.4416667,55.79 34.865,55.99 C35.2883333,56.19 35.6466667,56.46 35.94,56.8 C36.2333333,57.14 36.4583333,57.5366667 36.615,57.99 C36.7716667,58.4433333 36.85,58.9233333 36.85,59.43 C36.85,59.9433333 36.7716667,60.4266667 36.615,60.88 C36.4583333,61.3333333 36.2333333,61.73 35.94,62.07 C35.6466667,62.41 35.2883333,62.6783333 34.865,62.875 C34.4416667,63.0716667 33.9633333,63.17 33.43,63.17 C32.8966667,63.17 32.4183333,63.0716667 31.995,62.875 C31.5716667,62.6783333 31.2133333,62.41 30.92,62.07 C30.6266667,61.73 30.4016667,61.3333333 30.245,60.88 C30.0883333,60.4266667 30.01,59.9433333 30.01,59.43 C30.01,58.9233333 30.0883333,58.4433333 30.245,57.99 C30.4016667,57.5366667 30.6266667,57.14 30.92,56.8 C31.2133333,56.46 31.5716667,56.19 31.995,55.99 C32.4183333,55.79 32.8966667,55.69 33.43,55.69 Z M14.34,55.86 L14.34,60.02 L14.3438889,60.2611111 C14.3490741,60.4225926 14.3594444,60.5855556 14.375,60.75 C14.3983333,60.9966667 14.465,61.2183333 14.575,61.415 C14.685,61.6116667 14.8516667,61.7733333 15.075,61.9 C15.2983333,62.0266667 15.6133333,62.09 16.02,62.09 C16.4266667,62.09 16.7416667,62.0266667 16.965,61.9 C17.1883333,61.7733333 17.355,61.6116667 17.465,61.415 C17.575,61.2183333 17.6416667,60.9966667 17.665,60.75 C17.6883333,60.5033333 17.7,60.26 17.7,60.02 L17.7,60.02 L17.7,55.86 L18.95,55.86 L18.95,60.43 L18.9441667,60.655 C18.9247222,61.0216667 18.8566667,61.3466667 18.74,61.63 C18.6,61.97 18.4016667,62.255 18.145,62.485 C17.8883333,62.715 17.58,62.8866667 17.22,63 C16.86,63.1133333 16.46,63.17 16.02,63.17 C15.58,63.17 15.18,63.1133333 14.82,63 C14.46,62.8866667 14.1516667,62.715 13.895,62.485 C13.6383333,62.255 13.44,61.97 13.3,61.63 C13.16,61.29 13.09,60.89 13.09,60.43 L13.09,60.43 L13.09,55.86 L14.34,55.86 Z M3.21,55.69 C3.58333333,55.69 3.935,55.7383333 4.265,55.835 C4.595,55.9316667 4.885,56.0766667 5.135,56.27 C5.385,56.4633333 5.58333333,56.7016667 5.73,56.985 C5.87666667,57.2683333 5.95,57.5966667 5.95,57.97 L5.95,57.97 L4.7,57.97 L4.68171875,57.8038281 C4.62557292,57.4308594 4.475,57.16125 4.23,56.995 C3.95,56.805 3.59333333,56.71 3.16,56.71 C3.01333333,56.71 2.86333333,56.725 2.71,56.755 C2.55666667,56.785 2.41666667,56.835 2.29,56.905 C2.16333333,56.975 2.05833333,57.07 1.975,57.19 C1.89166667,57.31 1.85,57.46 1.85,57.64 C1.85,57.8933333 1.92833333,58.0916667 2.085,58.235 C2.24166667,58.3783333 2.44666667,58.4866667 2.7,58.56 C2.72666667,58.5666667 2.83166667,58.595 3.015,58.645 C3.19833333,58.695 3.40333333,58.75 3.63,58.81 C3.85666667,58.87 4.07833333,58.9283333 4.295,58.985 C4.51166667,59.0416667 4.66666667,59.0833333 4.76,59.11 C4.99333333,59.1833333 5.19666667,59.2833333 5.37,59.41 C5.54333333,59.5366667 5.68833333,59.6816667 5.805,59.845 C5.92166667,60.0083333 6.00833333,60.1833333 6.065,60.37 C6.12166667,60.5566667 6.15,60.7433333 6.15,60.93 C6.15,61.33 6.06833333,61.6716667 5.905,61.955 C5.74166667,62.2383333 5.52666667,62.47 5.26,62.65 C4.99333333,62.83 4.69,62.9616667 4.35,63.045 C4.01,63.1283333 3.66333333,63.17 3.31,63.17 C2.90333333,63.17 2.52,63.12 2.16,63.02 C1.8,62.92 1.48666667,62.7666667 1.22,62.56 C0.953333333,62.3533333 0.74,62.0883333 0.58,61.765 C0.42,61.4416667 0.336666667,61.06 0.33,60.62 L0.33,60.62 L1.58,60.62 L1.5856,60.7792 C1.60053333,60.9850667 1.64533333,61.1653333 1.72,61.32 C1.81333333,61.5133333 1.94333333,61.6716667 2.11,61.795 C2.27666667,61.9183333 2.46833333,62.0083333 2.685,62.065 C2.90166667,62.1216667 3.13666667,62.15 3.39,62.15 C3.66333333,62.15 3.89666667,62.1183333 4.09,62.055 C4.28333333,61.9916667 4.44,61.91 4.56,61.81 C4.68,61.71 4.76666667,61.595 4.82,61.465 C4.87333333,61.335 4.9,61.2033333 4.9,61.07 C4.9,60.7966667 4.83833333,60.595 4.715,60.465 C4.59166667,60.335 4.45666667,60.2433333 4.31,60.19 C4.05666667,60.0966667 3.76166667,60.0083333 3.425,59.925 C3.08833333,59.8416667 2.67333333,59.7333333 2.18,59.6 C1.87333333,59.52 1.61833333,59.415 1.415,59.285 C1.21166667,59.155 1.05,59.01 0.93,58.85 C0.81,58.69 0.725,58.52 0.675,58.34 C0.625,58.16 0.6,57.9766667 0.6,57.79 C0.6,57.43 0.675,57.1183333 0.825,56.855 C0.975,56.5916667 1.17333333,56.3733333 1.42,56.2 C1.66666667,56.0266667 1.94666667,55.8983333 2.26,55.815 C2.57333333,55.7316667 2.89,55.69 3.21,55.69 Z M28.86,55.86 L28.86,63 L27.61,63 L27.61,55.86 L28.86,55.86 Z M23.35,55.86 L23.5797959,55.8657143 C24.0304082,55.8885714 24.4271429,55.98 24.77,56.14 C25.17,56.3266667 25.4966667,56.5816667 25.75,56.905 C26.0033333,57.2283333 26.1916667,57.6066667 26.315,58.04 C26.4383333,58.4733333 26.5,58.9366667 26.5,59.43 C26.5,59.9233333 26.4383333,60.3866667 26.315,60.82 C26.1916667,61.2533333 26.0033333,61.6316667 25.75,61.955 C25.4966667,62.2783333 25.17,62.5333333 24.77,62.72 C24.37,62.9066667 23.8966667,63 23.35,63 L23.35,63 L20.39,63 L20.39,55.86 L23.35,55.86 Z M12.34,55.86 L12.34,56.94 L10.07,56.94 L10.07,63 L8.82,63 L8.82,56.94 L6.56,56.94 L6.56,55.86 L12.34,55.86 Z M33.43,56.71 C33.05,56.71 32.7216667,56.7866667 32.445,56.94 C32.1683333,57.0933333 31.9433333,57.2983333 31.77,57.555 C31.5966667,57.8116667 31.4683333,58.1033333 31.385,58.43 C31.3016667,58.7566667 31.26,59.09 31.26,59.43 C31.26,59.77 31.3016667,60.1033333 31.385,60.43 C31.4683333,60.7566667 31.5966667,61.0483333 31.77,61.305 C31.9433333,61.5616667 32.1683333,61.7666667 32.445,61.92 C32.7216667,62.0733333 33.05,62.15 33.43,62.15 C33.81,62.15 34.1383333,62.0733333 34.415,61.92 C34.6916667,61.7666667 34.9166667,61.5616667 35.09,61.305 C35.2633333,61.0483333 35.3916667,60.7566667 35.475,60.43 C35.5583333,60.1033333 35.6,59.77 35.6,59.43 C35.6,59.09 35.5583333,58.7566667 35.475,58.43 C35.3916667,58.1033333 35.2633333,57.8116667 35.09,57.555 C34.9166667,57.2983333 34.6916667,57.0933333 34.415,56.94 C34.1383333,56.7866667 33.81,56.71 33.43,56.71 Z M22.87,56.88 L21.64,56.88 L21.64,61.98 L22.87,61.98 C23.3566667,61.98 23.755,61.915 24.065,61.785 C24.375,61.655 24.6183333,61.475 24.795,61.245 C24.9716667,61.015 25.0916667,60.745 25.155,60.435 C25.2183333,60.125 25.25,59.79 25.25,59.43 C25.25,59.07 25.2183333,58.735 25.155,58.425 C25.0916667,58.115 24.9716667,57.845 24.795,57.615 C24.6183333,57.385 24.375,57.205 24.065,57.075 C23.755,56.945 23.3566667,56.88 22.87,56.88 L22.87,56.88 Z M37.92,40.69 C38.3066667,40.69 38.675,40.7416667 39.025,40.845 C39.375,40.9483333 39.6866667,41.1016667 39.96,41.305 C40.2333333,41.5083333 40.46,41.7633333 40.64,42.07 C40.82,42.3766667 40.9333333,42.73 40.98,43.13 L40.98,43.13 L39.76,43.13 L39.7278125,42.9603125 C39.6884375,42.7959375 39.6275,42.6475 39.545,42.515 C39.435,42.3383333 39.2966667,42.19 39.13,42.07 C38.9633333,41.95 38.7766667,41.86 38.57,41.8 C38.3633333,41.74 38.1466667,41.71 37.92,41.71 C37.54,41.71 37.2116667,41.7866667 36.935,41.94 C36.6583333,42.0933333 36.4333333,42.2983333 36.26,42.555 C36.0866667,42.8116667 35.9583333,43.1033333 35.875,43.43 C35.7916667,43.7566667 35.75,44.09 35.75,44.43 C35.75,44.77 35.7916667,45.1033333 35.875,45.43 C35.9583333,45.7566667 36.0866667,46.0483333 36.26,46.305 C36.4333333,46.5616667 36.6583333,46.7666667 36.935,46.92 C37.2116667,47.0733333 37.54,47.15 37.92,47.15 C38.24,47.1566667 38.5233333,47.115 38.77,47.025 C39.0166667,46.935 39.225,46.805 39.395,46.635 C39.565,46.465 39.6933333,46.2566667 39.78,46.01 C39.8666667,45.7633333 39.9133333,45.49 39.92,45.19 L39.92,45.19 L38.02,45.19 L38.02,44.24 L41.06,44.24 L41.06,48 L40.26,48 L40.07,47.16 L39.9271429,47.3157143 C39.6414286,47.6128571 39.3557143,47.8242857 39.07,47.95 C38.7366667,48.0966667 38.3533333,48.17 37.92,48.17 C37.3866667,48.17 36.9083333,48.0716667 36.485,47.875 C36.0616667,47.6783333 35.7033333,47.41 35.41,47.07 C35.1166667,46.73 34.8916667,46.3333333 34.735,45.88 C34.5783333,45.4266667 34.5,44.9433333 34.5,44.43 C34.5,43.9233333 34.5783333,43.4433333 34.735,42.99 C34.8916667,42.5366667 35.1166667,42.14 35.41,41.8 C35.7033333,41.46 36.0616667,41.19 36.485,40.99 C36.9083333,40.79 37.3866667,40.69 37.92,40.69 Z M43.67,40.86 L43.67,48 L42.42,48 L42.42,40.86 L43.67,40.86 Z M9.23,40.86 L9.23,44.11 L12.41,40.86 L13.95,40.86 L11.1,43.71 L14.15,48 L12.59,48 L10.25,44.59 L9.23,45.6 L9.23,48 L7.98,48 L7.98,40.86 L9.23,40.86 Z M16.05,40.86 L16.05,43.7 L19.3,43.7 L19.3,40.86 L20.55,40.86 L20.55,48 L19.3,48 L19.3,44.78 L16.05,44.78 L16.05,48 L14.8,48 L14.8,40.86 L16.05,40.86 Z M27.79,40.86 L28.0197959,40.8657143 C28.4704082,40.8885714 28.8671429,40.98 29.21,41.14 C29.61,41.3266667 29.9366667,41.5816667 30.19,41.905 C30.4433333,42.2283333 30.6316667,42.6066667 30.755,43.04 C30.8783333,43.4733333 30.94,43.9366667 30.94,44.43 C30.94,44.9233333 30.8783333,45.3866667 30.755,45.82 C30.6316667,46.2533333 30.4433333,46.6316667 30.19,46.955 C29.9366667,47.2783333 29.61,47.5333333 29.21,47.72 C28.81,47.9066667 28.3366667,48 27.79,48 L27.79,48 L24.83,48 L24.83,40.86 L27.79,40.86 Z M59.05,40.86 L59.05,46.92 L62.68,46.92 L62.68,48 L57.8,48 L57.8,40.86 L59.05,40.86 Z M54.37,40.86 L57.12,48 L55.78,48 L55.11,46.11 L52.26,46.11 L51.59,48 L50.3,48 L53.04,40.86 L54.37,40.86 Z M33.3,40.86 L33.3,48 L32.05,48 L32.05,40.86 L33.3,40.86 Z M2.03,40.86 L5.29,46.12 L5.31,46.12 L5.31,40.86 L6.5,40.86 L6.5,48 L5.18,48 L1.93,42.75 L1.9,42.75 L1.9,48 L0.71,48 L0.71,40.86 L2.03,40.86 Z M50.3,40.86 L50.3,41.94 L48.03,41.94 L48.03,48 L46.78,48 L46.78,41.94 L44.52,41.94 L44.52,40.86 L50.3,40.86 Z M27.31,41.88 L26.08,41.88 L26.08,46.98 L27.31,46.98 C27.7966667,46.98 28.195,46.915 28.505,46.785 C28.815,46.655 29.0583333,46.475 29.235,46.245 C29.4116667,46.015 29.5316667,45.745 29.595,45.435 C29.6583333,45.125 29.69,44.79 29.69,44.43 C29.69,44.07 29.6583333,43.735 29.595,43.425 C29.5316667,43.115 29.4116667,42.845 29.235,42.615 C29.0583333,42.385 28.815,42.205 28.505,42.075 C28.195,41.945 27.7966667,41.88 27.31,41.88 L27.31,41.88 Z M53.71,42.09 L53.68,42.09 L52.6,45.16 L54.78,45.16 L53.71,42.09 Z M39.9533841,0.722154615 L40.237,0.999154615 L77.106383,1 L77.106383,28 L40.879,27.9991546 L40.7616426,28.1138935 L40.651,27.9991546 L0,28 L0,1 L39.683,0.999154615 L39.9533841,0.722154615 Z M50.053,3 L40.526,2.99915461 L35.617,8.03415461 L35.617,19.8881546 L41.502,25.9991546 L50.053,26 L50.053,3 Z M75.106,15.4991546 L52.106,15.4991546 L52.106,26 L75.106,26 L75.106,15.4991546 Z M37.733,2.99915461 L27.053,3 L27.053,26 L38.725,25.9991546 L33.695,20.7761546 L33.6170213,20.7762377 L33.617,20.6951546 L27.0894942,13.9174356 L37.733,2.99915461 Z M2,4.41415461 L2,26 L23.585,25.9991546 L2,4.41415461 Z M25,3 L3.414,2.99915461 L25,24.5861546 L25,3 Z M33.617,10.0851546 L29.874,13.925 L33.617,17.8111546 L33.617,10.0851546 Z M75.106,3 L52.106,3 L52.106,13.4991546 L75.106,13.4991546 L75.106,3 Z" id="Combined-Shape"></path>
                    </g>
                </g>
            </g>
        </g>
    </g>
</svg>