<svg xmlns="http://www.w3.org/2000/svg" viewBox="0 0 50 50">
  <defs/>
  <path fill="#6DD400" d="M25 50c13.8071 0 25-11.1929 25-25S38.8071 0 25 0 0 11.1929 0 25s11.1929 25 25 25z"/>
  <path fill="#FFF" d="M39.984 18.4717c-.1067-1.3602-.7427-2.6756-1.7909-3.7038-2.19-2.148-5.5274-2.3698-7.4394-.4942L17.9033 26.8783c-.5898.5784-.9146 1.3475-.9146 2.1656s.3248 1.5872.9146 2.1657c.5898.5785 1.3739.8971 2.2079.8971.834 0 1.6182-.3186 2.2079-.8971L35.1695 18.605a.6078.6078 0 000-.8713c-.2453-.2406-.6429-.2406-.8883 0L21.4309 30.3385c-.3525.3457-.8212.5362-1.3197.5362-.4985 0-.9671-.1905-1.3197-.5362-.3525-.3458-.5466-.8055-.5466-1.2945s.1941-.9486.5466-1.2944L31.642 15.1449c1.4223-1.3952 3.9626-1.1734 5.6629.4943.8363.8203 1.343 1.8598 1.4267 2.927.0809 1.0315-.2469 1.9647-.9227 2.6277l-4.5355 4.4487-8.315 8.156c-1.2947 1.2699-3.0162 1.9694-4.8472 1.9694s-3.5525-.6995-4.8472-1.9694c-1.2948-1.2699-2.0078-2.9584-2.0078-4.7546 0-1.796.713-3.4846 2.0078-4.7545l10.0787-9.886a.6078.6078 0 000-.8714c-.2452-.2405-.643-.2405-.8882 0l-10.0788 9.8861C12.8437 24.9209 12 26.9189 12 29.0439c0 2.1252.8437 4.1232 2.3757 5.6259C15.9077 36.1724 17.9447 37 20.1112 37c2.1666 0 4.2034-.8276 5.7355-2.3302l8.315-8.156 4.5354-4.4488c.9394-.9212 1.3965-2.1974 1.2869-3.5933z"/>
</svg>
