<svg xmlns="http://www.w3.org/2000/svg" viewBox="0 0 100 100">
    <defs/>
    <g fill="none" fill-rule="evenodd">
        <circle cx="50" cy="50" r="50" fill="#6DD400"/>
        <g stroke="#FFF" stroke-width="2">
            <path d="M75.6797833 37.4145985C70.8531941 27.78043257 60.8887196 21.16676 49.3795391 21.16676c-11.1705177 0-20.88589919 6.23017846-25.8609161 15.4053069"/>
            <path d="M68.4141013 42.2259217c-3.4819696-6.972691-10.6704819-11.75931133-18.9733669-11.75931133-8.0585689 0-15.067382 4.50906793-18.65642935 11.14953233"/>
            <path d="M61.0645317 46.9296462c-2.1218252-4.1836145-6.5023249-7.0555868-11.5618954-7.0555868-4.9106905 0-9.181686 2.7054408-11.3687617 6.6897194"/>
        </g>
        <path fill="#FFF" d="M68.5558683 63.5002807c1.1045695 0 2 .8954305 2 2v5.4074491c0 1.1045695-.8954305 2-2 2H31.39827866c-1.1045695 0-2-.8954305-2-2v-5.4074491c0-1.1045695.8954305-2 2-2H68.5558683zm-7.4074491 3.5277934c-.6494488 0-1.1759311.5264823-1.1759311 1.1759312 0 .6494488.5264823 1.1759311 1.1759311 1.1759311.6494489 0 1.1759312-.5264823 1.1759312-1.1759311 0-.6494489-.5264823-1.1759312-1.1759312-1.1759312zm4.7037245 0c-.6494488 0-1.1759311.5264823-1.1759311 1.1759312 0 .6494488.5264823 1.1759311 1.1759311 1.1759311.6494489 0 1.1759312-.5264823 1.1759312-1.1759311 0-.6494489-.5264823-1.1759312-1.1759312-1.1759312z"/>
        <path fill="#FFF" d="M49.1591632 47.0372449h.4598894c.5307337 0 .9690205.4146134.9984603.94453l1.06482 19.1667604c.0306353.5514344-.3915559 1.0232951-.9429903 1.0539303a.99993428.99993428 0 01-.05547.0015397h-2.5895294c-.5522847 0-1-.4477153-1-1a.99993428.99993428 0 01.0015397-.05547l1.06482-19.1667604c.0294398-.5299166.4677266-.94453.9984603-.94453z"/>
    </g>
</svg>
