<svg xmlns="http://www.w3.org/2000/svg" viewBox="0 0 85 85">
  <defs/>
  <path fill="#E1654F" d="M42.5 85C65.9721 85 85 65.9721 85 42.5S65.9721 0 42.5 0 0 19.0279 0 42.5 19.0279 85 42.5 85z"/>
  <path fill="#FFF" fill-rule="evenodd" d="M42.5 67C56.031 67 67 56.031 67 42.5S56.031 18 42.5 18 18 28.969 18 42.5 28.969 67 42.5 67zm0-1c6.4893 0 12.0283-2.2943 16.617-6.883C63.7057 54.5283 66 48.9893 66 42.5s-2.2943-12.0284-6.883-16.617Q52.234 19 42.5 19c-6.4893 0-12.0283 2.2943-16.617 6.883Q19 32.766 19 42.5c0 6.4893 2.2943 12.0283 6.883 16.617Q32.766 66 42.5 66z"/>
  <path fill="#FFF" d="M33.706 24.1281l1.7052 3.7893-.912.4104-1.9103-4.2453.9119-.4103.2052.456zM24.5387 31.794l3.7893 1.7052-.4104.912-4.2452-1.9104.4103-.912.456.2053zM53.206 24.5385l-1.7052 3.7893-.912-.4104 1.9104-4.2452.912.4103-.2052.456zM61.2235 32.4472l-4.4472 2.2236-.4472-.8944 4.8944-2.4472.4472.8944-.4472.2236zM60.4617 53.206l-3.7893-1.7052.4103-.912 4.2453 1.9104-.4104.912-.456-.2052zM24.1283 51.294l3.7893-1.7051.4104.9119-4.2453 1.9103-.4103-.9119.456-.2052zM53.0205 32.6869l-7.687 7.6869-.707-.7071 8.0404-8.0405.7071.7071-.3535.3536z"/>
  <path fill="#FFF" fill-rule="evenodd" d="M43 46c1.6569 0 3-1.3431 3-3 0-1.6568-1.3431-3-3-3-1.6568 0-3 1.3432-3 3 0 1.6569 1.3432 3 3 3zm1.5-1.5q.5-.5.5-1.5t-.5-1.5Q44 41 43 41t-1.5.5Q41 42 41 43t.5 1.5q.5.5 1.5.5t1.5-.5z"/>
  <path fill="#FFF" d="M36.999 53h12.002q.0982 0 .1959.0096.0978.0097.1941.0288.0963.0192.1903.0477t.1847.066q.0907.0376.1773.084.0866.0462.1683.1008.0816.0546.1576.1169.0759.0623.1453.1317.0694.0694.1317.1453.0623.076.1169.1576.0546.0817.1009.1683.0463.0866.0838.1773.0376.0907.0661.1847.0285.094.0477.1903.0191.0963.0288.194.0096.0978.0096.196v3.002q0 .0982-.0096.196-.0097.0977-.0288.194-.0192.0963-.0477.1903t-.0661.1847q-.0375.0907-.0838.1773-.0463.0866-.1009.1683-.0546.0816-.1169.1576-.0623.0759-.1317.1453-.0694.0695-.1453.1318-.076.0623-.1576.1168-.0817.0546-.1683.1009-.0866.0463-.1773.0838-.0907.0376-.1847.0661-.094.0285-.1903.0477t-.1941.0288Q49.0992 60 49.001 60H36.999q-.0982 0-.196-.0096-.0977-.0096-.194-.0288-.0963-.0192-.1903-.0477t-.1847-.066q-.0907-.0376-.1773-.084-.0866-.0462-.1683-.1008-.0816-.0545-.1576-.1168-.0759-.0623-.1453-.1318-.0694-.0694-.1317-.1453-.0623-.076-.117-.1576-.0545-.0817-.1008-.1683-.0463-.0866-.0838-.1773-.0376-.0907-.0661-.1847-.0285-.094-.0477-.1903-.0191-.0963-.0288-.194Q35 58.0991 35 58.001v-3.002q0-.0982.0096-.196.0097-.0977.0288-.194.0192-.0963.0477-.1903t.066-.1847q.0376-.0907.084-.1773.0462-.0866.1008-.1683.0546-.0816.1169-.1576.0623-.0759.1317-.1453.0694-.0694.1453-.1317.076-.0623.1576-.117.0817-.0545.1683-.1008.0866-.0463.1773-.0838.0907-.0376.1847-.0661.094-.0285.1903-.0477.0963-.0191.194-.0288.0978-.0096.196-.0096z"/>
  <path fill="#FFF" d="M43 20.8571v5.2857h-1v-5.2857h1zM21.5 42h5v1h-5v-1zM64.1426 43H58.857v-1h5.2857v1z"/>
</svg>
