<svg xmlns="http://www.w3.org/2000/svg" viewBox="0 0 34 34">
  <defs/>
  <g fill="currentColor">
    <path fill-opacity=".502" fill-rule="evenodd" d="M7.999 0h18.002q3.3133 0 5.6561 2.3428C33.219 3.9048 34 5.7901 34 7.999v18.002c0 2.2089-.781 4.0942-2.3429 5.6561C30.0952 33.219 28.2099 34 26.001 34H7.999c-2.2089 0-4.0942-.781-5.6561-2.3429Q0 29.3143 0 26.001V7.999q0-3.3133 2.3428-5.6561Q4.6859 0 7.999 0zm0 1Q5.1 1 3.05 3.05T1 7.999v18.002q0 2.8991 2.05 4.949Q5.1 33 7.999 33h18.002c1.9327 0 3.5824-.6833 4.949-2.05Q33 28.9001 33 26.001V7.999c0-1.9327-.6833-3.5824-2.05-4.949Q28.9001 1 26.001 1H7.999z"/>
    <path fill-opacity=".6" d="M16.6115 23.422c.5992 0 .5992-.9003.5992-1.2494 0-.6247.5992-1.2494 1.1983-1.2494.5992 0 1.6268 1.0713 2.3968 1.874.5991.6247.5991.6247 1.1983.6247h1.7975S25 23.3744 25 22.1726c0-.3905-.4104-1.0526-1.7975-2.4988-1.1984-1.2493-1.8131-.604 0-3.1233 1.1043-1.5342 1.9077-2.9241 1.7699-3.3252-.1318-.383-3.2032-.9926-3.5675-.4229-1.1983 1.874-1.4182 2.3332-1.7975 3.1234-.5992 1.2493-.6585 1.874-1.1984 1.874-.5446 0-.5991-1.2125-.5991-1.874 0-2.0652.287-3.5257-.5992-3.748h-1.7975c-.9647 0-1.7976.6246-1.7976.6246s-.7436.6047-.5992.6247c.1786.025 1.1984-.2586 1.1984.6247v1.2493s.0054 2.4987-.5992 2.4987c-.5992 0-1.7975-2.4987-2.9959-4.3727-.4703-.7353-.5991-.6247-1.1983-.6247-.6423 0-1.1978.0262-1.7976.0262-.5991 0-.6758.398-.5991.5985 1.1983 3.1234 2.0593 5.0849 4.3362 7.556 2.0882 2.267 3.483 2.3875 4.6514 2.4388.2996.0131 0 0 .5992 0z"/>
  </g>
</svg>
