<svg xmlns="http://www.w3.org/2000/svg" viewBox="0 0 34 34">
  <defs/>
  <g fill="currentColor">
    <path fill-opacity=".502" fill-rule="evenodd" d="M7.999 0h18.002q3.3133 0 5.6561 2.3428C33.219 3.9048 34 5.7901 34 7.999v18.002c0 2.2089-.781 4.0942-2.3429 5.6561C30.0952 33.219 28.2099 34 26.001 34H7.999c-2.2089 0-4.0942-.781-5.6561-2.3429Q0 29.3143 0 26.001V7.999q0-3.3133 2.3428-5.6561Q4.6859 0 7.999 0zm0 1Q5.1 1 3.05 3.05T1 7.999v18.002q0 2.8991 2.05 4.949Q5.1 33 7.999 33h18.002c1.9327 0 3.5824-.6833 4.949-2.05Q33 28.9001 33 26.001V7.999c0-1.9327-.6833-3.5824-2.05-4.949Q28.9001 1 26.001 1H7.999z"/>
    <path fill-opacity=".6" d="M14.6592 24c6.7945 0 10.5109-5.3872 10.5109-10.0558 0-.1513 0-.3026-.0113-.4593.7229-.5025 1.3442-1.1185 1.8412-1.8318a7.5342 7.5342 0 01-2.1236.5565c.7737-.443 1.3498-1.1347 1.6266-1.956-.723.4107-1.5193.7025-2.3439.8592-1.4007-1.4212-3.739-1.4914-5.2244-.1513-.9601.8645-1.3668 2.1505-1.0674 3.3771-2.9708-.1405-5.7383-1.486-7.6135-3.6905-.9827 1.6156-.48 3.6797 1.141 4.7172-.5875-.0162-1.1635-.1675-1.6775-.4431v.0432c0 1.6805 1.2425 3.1286 2.9652 3.4636a3.8522 3.8522 0 01-1.6662.0595c.4857 1.4373 1.8695 2.4261 3.451 2.4531-1.3104.9835-2.9257 1.5184-4.5862 1.5184A8.0292 8.0292 0 019 22.4114C10.683 23.4488 12.6486 24 14.6592 24"/>
  </g>
</svg>
