<svg xmlns="http://www.w3.org/2000/svg" viewBox="0 0 36 36">
  <defs/>
  <path fill="currentColor" d="M1.999 0h32.002q.0982 0 .1959.0096.0978.0097.1941.0288.0963.0192.1903.0477t.1847.066q.0907.0376.1773.084.0866.0462.1683.1008.0816.0546.1576.1169.0759.0623.1453.1317.0694.0694.1317.1453.0623.076.1169.1576.0546.0817.1009.1683.0462.0866.0838.1773.0376.0907.0661.1847.0285.094.0477.1903.0191.0963.0288.194.0096.0978.0096.196v32.002q0 .0982-.0096.1959-.0097.0978-.0288.1941-.0192.0963-.0477.1903t-.0661.1847q-.0376.0907-.0838.1773-.0463.0866-.1009.1683-.0546.0816-.1169.1576-.0623.0759-.1317.1453-.0694.0694-.1453.1317-.076.0623-.1576.1169-.0817.0546-.1683.1009-.0866.0462-.1773.0838-.0907.0376-.1847.0661-.094.0285-.1903.0477-.0963.0191-.1941.0288Q34.0992 36 34.001 36H1.999q-.0982 0-.196-.0096-.0977-.0097-.194-.0288-.0963-.0192-.1903-.0477t-.1847-.0661q-.0907-.0376-.1773-.0838-.0866-.0463-.1683-.1009-.0816-.0546-.1576-.1169-.0759-.0623-.1453-.1317-.0694-.0694-.1317-.1453-.0623-.076-.117-.1576-.0545-.0817-.1008-.1683-.0463-.0866-.0838-.1773-.0376-.0907-.0661-.1847-.0285-.094-.0477-.1903-.0191-.0963-.0288-.1941Q0 34.0992 0 34.001V1.999q0-.0982.0096-.196.0097-.0977.0288-.194.0192-.0963.0477-.1903t.066-.1847q.0376-.0907.084-.1773Q.2822.97.3368.8884.3915.8068.4538.7308.516.655.5855.5855.6549.516.7308.4538q.076-.0623.1576-.117.0817-.0545.1683-.1008.0866-.0463.1773-.0838.0907-.0376.1847-.0661.094-.0285.1903-.0477.0963-.0191.194-.0288Q1.9009 0 1.999 0z"/>
  <g fill="#fff">
    <path fill-rule="evenodd" d="M17.0586 24c4.4183 0 8-3.5817 8-8s-3.5817-8-8-8-8 3.5817-8 8 3.5817 8 8 8zm0-3q2.071 0 3.5355-1.4645Q22.0586 18.0711 22.0586 16q0-2.071-1.4645-3.5355Q19.1297 11 17.0586 11q-2.071 0-3.5355 1.4645Q12.0586 13.9289 12.0586 16t1.4645 3.5355Q14.9875 21 17.0586 21z"/>
    <path d="M23.1192 19.9393l4.5962 4.5962-2.1213 2.1213L19.9373 21l2.1213-2.1213 1.0606 1.0606z"/>
  </g>
</svg>
