<svg xmlns="http://www.w3.org/2000/svg" viewBox="0 0 34 34">
  <defs/>
  <g fill="currentColor" fill-rule="evenodd">
    <path fill-opacity=".502" d="M7.999 0h18.002q3.3133 0 5.6561 2.3428C33.219 3.9048 34 5.7901 34 7.999v18.002c0 2.2089-.781 4.0942-2.3429 5.6561C30.0952 33.219 28.2099 34 26.001 34H7.999c-2.2089 0-4.0942-.781-5.6561-2.3429Q0 29.3143 0 26.001V7.999q0-3.3133 2.3428-5.6561Q4.6859 0 7.999 0zm0 1Q5.1 1 3.05 3.05T1 7.999v18.002q0 2.8991 2.05 4.949Q5.1 33 7.999 33h18.002c1.9327 0 3.5824-.6833 4.949-2.05Q33 28.9001 33 26.001V7.999c0-1.9327-.6833-3.5824-2.05-4.949Q28.9001 1 26.001 1H7.999z"/>
    <path fill-opacity=".6" d="M25.0469 16.9984l-.0002.0117-.0527 3.3557c-.0285 2.5166-2.0681 4.5498-4.5925 4.5782l-3.378.0529-.0117-.0002-3.3663-.0525c-2.5245-.0284-4.564-2.0615-4.5927-4.5781L9 16.9984l.0002-.0116.0526-3.3558c.0287-2.5166 2.0682-4.5497 4.5927-4.5782L17.0235 9l.0116.0002 3.3662.0524c2.5245.0285 4.5639 2.0616 4.5925 4.5782l.0531 3.3676zM23.5 13.6544l.0525 3.344-.0525 3.3442c-.0193 1.7108-1.4058 3.093-3.122 3.1123l-3.3546.0522-3.3545-.0522c-1.7162-.0193-3.1027-1.4015-3.1221-3.1123l-.0524-3.3442.0524-3.344c.0194-1.7109 1.406-3.093 3.122-3.1124l3.3546-.0522 3.3546.0522c1.7162.0193 3.1026 1.4015 3.122 3.1123zm-1.975.0203a.9255.9255 0 00.573-.8552c-.0001-.511-.4156-.9253-.9282-.9254a.9284.9284 0 00-.8579.5713.9233.9233 0 00.2012 1.0087.9305.9305 0 001.0119.2006zm-.3813 3.3237c0 1.6614-1.0039 3.1591-2.5436 3.7948-1.5396.6358-3.3118.2843-4.4902-.8904s-1.5309-2.9414-.8931-4.4762c.6377-1.5349 2.1401-2.5356 3.8066-2.5356 2.2745.0026 4.1177 1.84 4.1203 4.1074zm-3.1153-2.4186c.9813.4052 1.6211 1.3598 1.6211 2.4186-.0017 1.4452-1.1764 2.6163-2.626 2.618-1.0622 0-2.0198-.6378-2.4263-1.616a2.612 2.612 0 01.5693-2.8531c.751-.7487 1.8805-.9727 2.8619-.5675z"/>
  </g>
</svg>
