<svg xmlns="http://www.w3.org/2000/svg" viewBox="0 0 42 39">
  <defs/>
  <path fill="currentColor" fill-rule="evenodd" d="M30.7422 8.6889a.8675.8675 0 00.3194.0604.8786.8786 0 00.3199-.0604H38.5c.9643 0 1.75.8811 1.75 1.89v24.3399c0 1.0088-.7857 1.8305-1.75 1.8305H7.0009c-.966 0-1.7509-.8217-1.7509-1.8314v-6.9195h9.6259c.4839 0 .875-.392.875-.875v-8.7491a.8747.8747 0 00-.875-.875H5.25v-6.9204c0-1.0089.784-1.89 1.75-1.89h3.6175a.8792.8792 0 00.6386 0h19.4861zm.508-1.6896L15.9941.0772c-.385-.1741-.8496-.0464-1.0876.3097l-4.4352 6.6124H7.0009C5.0706 6.9993 3.5 8.604 3.5 10.5789v6.9204H.875a.8748.8748 0 00-.875.875v8.75c0 .483.3911.875.875.875H3.5v6.9195c0 1.9757 1.5706 3.5805 3.5009 3.5805H38.5c1.9303 0 3.5-1.6048 3.5-3.5805V10.5789c0-1.9749-1.5697-3.5796-3.5-3.5796h-7.2498zm-18.6724 0h14.4376L15.9469 1.9777l-3.3691 5.0216zM1.75 26.2493h12.2509L14 19.2143H4.5544c-.0604.0122-.1155.0358-.1794.0358s-.1199-.0236-.1794-.0358H1.75v7.035zm7.875-4.375h1.7509c.4839 0 .875.392.875.8741 0 .483-.3911.875-.875.875H9.625a.8748.8748 0 01-.875-.875c0-.4821.3911-.8741.875-.8741z"/>
</svg>
